<svg version="1.1" xmlns="http://www.w3.org/2000/svg" width="100" height="81.984" viewBox="0 0 100 81.984"><path d="M89.966 14.823c0.172 0.156 0.172 0.156 0.333 0.376l0.182 0.244 0.191 0.264 0.199 0.269q0.199 0.269 0.396 0.538a33.979 33.979 0 0 0 0.467 0.621c1.121 1.462 2.049 2.968 2.885 4.608a28.05 28.05 0 0 0 0.392 0.728c1.548 2.799 2.602 5.778 3.315 8.886l0.059 0.258c0.239 1.05 0.443 2.096 0.589 3.163 -0.948 0.649 -1.908 1.27 -2.893 1.86l-0.283 0.17a47.206 47.206 0 0 1 -1.357 0.78 19.726 19.726 0 0 0 -1.118 0.669c-0.843 0.524 -1.715 0.988 -2.589 1.457 -0.586 0.315 -1.167 0.632 -1.737 0.973 -0.467 0.278 -0.944 0.524 -1.432 0.762 -0.856 0.418 -1.685 0.88 -2.516 1.347 -1.669 0.936 -3.352 1.852 -5.131 2.562 -0.645 0.273 -1.264 0.599 -1.888 0.917 -2.135 1.084 -4.278 2.158 -6.471 3.12 -0.612 0.268 -1.215 0.546 -1.81 0.848 -3.852 1.949 -3.852 1.949 -5.713 2.661 -0.812 0.314 -1.596 0.68 -2.382 1.052A90.422 90.422 0 0 1 58.11 55.53l-0.219 0.092c-0.736 0.31 -1.474 0.605 -2.228 0.868 -0.857 0.301 -1.692 0.649 -2.529 1.002 -0.451 0.191 -0.903 0.38 -1.355 0.569l-0.271 0.113C50.308 58.677 49.101 59.161 47.891 59.635l-0.319 0.125c-1.003 0.391 -2.006 0.771 -3.031 1.101 -1.34 0.433 -2.647 0.962 -3.958 1.475 -4.715 1.845 -4.715 1.845 -5.916 2.236 -0.705 0.233 -1.398 0.497 -2.093 0.759q-0.369 0.139 -0.739 0.277c-0.729 0.273 -1.456 0.549 -2.176 0.843 -1.075 0.436 -2.178 0.782 -3.283 1.129l-0.257 0.081c-0.84 0.264 -1.678 0.518 -2.531 0.737 -1.07 0.28 -2.116 0.632 -3.166 0.98 -0.616 0.204 -1.233 0.406 -1.85 0.609l-0.375 0.123a321.095 321.095 0 0 1 -3.537 1.133l-0.27 0.085Q13.581 71.584 12.771 71.836l-0.33 0.104c-0.438 0.136 -0.87 0.253 -1.322 0.337 -0.708 0.139 -1.4 0.328 -2.096 0.518l-0.424 0.115a870.125 870.125 0 0 0 -1.114 0.304q-0.548 0.15 -1.097 0.299l-0.872 0.237 -0.435 0.118a179.247 179.247 0 0 0 -2.025 0.562q-0.459 0.131 -0.919 0.26c-0.215 0.061 -0.43 0.124 -0.645 0.186l-0.393 0.111 -0.345 0.099c-0.302 0.056 -0.47 0.043 -0.756 -0.058 0.262 -0.299 0.493 -0.423 0.866 -0.556l0.323 -0.117L1.539 74.23c1.183 -0.431 2.35 -0.894 3.512 -1.38 0.627 -0.26 1.254 -0.497 1.9 -0.706 1.034 -0.335 2.037 -0.744 3.044 -1.151q0.507 -0.205 1.014 -0.409c0.934 -0.375 1.866 -0.752 2.799 -1.129q0.468 -0.189 0.937 -0.378 0.309 -0.125 0.618 -0.251c0.527 -0.212 1.044 -0.415 1.593 -0.563 0.902 -0.258 1.743 -0.694 2.591 -1.089l0.529 -0.245q0.51 -0.235 1.019 -0.472c1.133 -0.525 2.274 -1.028 3.42 -1.523l0.337 -0.146 0.301 -0.13A15.051 15.051 0 0 0 25.884 64.31l-0.213 -0.314c-0.641 -0.948 -1.252 -1.909 -1.83 -2.897a101.026 101.026 0 0 0 -0.37 -0.624c-0.41 -0.695 -0.774 -1.39 -1.07 -2.142a22.919 22.919 0 0 0 -0.41 -0.944C20.469 54.049 19.25 50.421 18.928 46.75c0.769 -0.416 1.555 -0.686 2.387 -0.951l0.655 -0.213q0.345 -0.112 0.69 -0.223c0.792 -0.255 1.583 -0.514 2.373 -0.772l0.235 -0.077c2.509 -0.819 5.003 -1.668 7.435 -2.697 0.695 -0.293 1.394 -0.546 2.111 -0.78 0.752 -0.247 1.482 -0.538 2.214 -0.836l0.436 -0.176q0.464 -0.187 0.927 -0.375c0.775 -0.313 1.551 -0.625 2.327 -0.935q0.374 -0.15 0.747 -0.3a114.139 114.139 0 0 1 2.814 -1.087c1.056 -0.395 2.091 -0.816 3.11 -1.301 1.651 -0.778 3.352 -1.454 5.039 -2.147l0.29 -0.119a69.327 69.327 0 0 1 1.594 -0.626c0.751 -0.288 1.487 -0.602 2.221 -0.93l0.403 -0.179c0.988 -0.443 1.956 -0.919 2.921 -1.411 0.819 -0.414 1.65 -0.794 2.491 -1.161 1.397 -0.61 2.766 -1.27 4.134 -1.941a110.262 110.262 0 0 1 3.049 -1.437c1.237 -0.562 2.428 -1.191 3.612 -1.857 0.405 -0.227 0.814 -0.449 1.222 -0.671 0.318 -0.174 0.636 -0.348 0.953 -0.524l0.633 -0.348 0.319 -0.177c0.47 -0.258 0.938 -0.506 1.431 -0.717 0.628 -0.272 1.21 -0.618 1.799 -0.966l0.361 -0.212c0.883 -0.52 1.753 -1.06 2.621 -1.606 0.645 -0.401 1.301 -0.765 1.978 -1.111 0.957 -0.49 1.847 -1.053 2.743 -1.646 0.452 -0.296 0.91 -0.584 1.369 -0.87l0.262 -0.167 0.246 -0.152 0.216 -0.135C89.51 14.823 89.51 14.823 89.966 14.823" fill="#F0BE00"/><path d="M69.854 1.864c0.288 0.079 0.577 0.151 0.866 0.222C72.341 2.493 73.848 3.078 75.371 3.763l0.319 0.143c1.3 0.587 2.544 1.244 3.769 1.974 0.36 0.214 0.725 0.41 1.1 0.599C81.559 7.016 82.448 7.755 83.352 8.438q0.273 0.204 0.545 0.408Q84.538 9.325 85.177 9.806c-0.114 0.342 -0.114 0.342 -0.38 0.499l-0.346 0.16c-0.699 0.335 -1.36 0.711 -2.025 1.108 -1.991 1.174 -4.035 2.247 -6.087 3.309 -0.901 0.469 -1.785 0.966 -2.667 1.469 -2.205 1.256 -2.205 1.256 -3.005 1.592 -0.425 0.181 -0.832 0.39 -1.239 0.607l-0.227 0.121a362.144 362.144 0 0 0 -0.721 0.384l-0.497 0.265c-0.896 0.478 -1.788 0.963 -2.671 1.466 -0.705 0.401 -1.41 0.778 -2.17 1.063 -0.877 0.348 -1.71 0.787 -2.551 1.212l-0.498 0.251a1024.059 1024.059 0 0 0 -0.99 0.498 611.859 611.859 0 0 1 -1.713 0.86c-0.834 0.417 -1.67 0.803 -2.544 1.13 -0.781 0.299 -1.54 0.634 -2.301 0.98q-0.434 0.196 -0.867 0.391l-0.227 0.102a396.579 396.579 0 0 1 -2.509 1.119q-0.248 0.11 -0.497 0.221c-0.895 0.398 -1.792 0.778 -2.709 1.124 -0.601 0.23 -1.193 0.479 -1.786 0.727l-1.099 0.456c-1.017 0.421 -2.034 0.842 -3.052 1.261q-0.328 0.135 -0.657 0.271c-1.127 0.467 -2.251 0.909 -3.413 1.283 -0.605 0.204 -1.187 0.457 -1.772 0.713 -2.084 0.895 -4.187 1.739 -6.333 2.472 -1.024 0.35 -2.042 0.716 -3.059 1.084 -0.088 0.032 -0.176 0.064 -0.266 0.096a787.001 787.001 0 0 0 -3.625 1.322l-1.233 0.452q-0.4 0.147 -0.8 0.294c-0.384 0.141 -0.768 0.282 -1.152 0.422l-0.338 0.125c-0.519 0.188 -1.029 0.352 -1.567 0.475 -1.004 0.241 -1.967 0.612 -2.937 0.961 -0.607 0.219 -1.215 0.435 -1.823 0.651l-0.373 0.133a306.157 306.157 0 0 1 -3.377 1.18q-0.292 0.1 -0.585 0.201C5.145 44.785 3.796 45.23 2.395 45.496c0.114 -0.342 0.114 -0.342 0.377 -0.498l0.344 -0.159c0.725 -0.348 1.416 -0.737 2.108 -1.146l0.363 -0.213a109.578 109.578 0 0 0 1.707 -1.021c0.758 -0.463 1.534 -0.889 2.32 -1.303l0.32 -0.169 0.298 -0.155 0.267 -0.139C10.718 40.593 10.718 40.593 10.946 40.593v-0.228l0.244 -0.136q0.555 -0.31 1.11 -0.62l0.383 -0.213A71.38 71.38 0 0 0 14.937 38.084c0.777 -0.466 1.556 -0.904 2.374 -1.294L17.674 36.602l0.283 -0.112c0.5 -0.232 0.792 -0.408 1 -0.932a13.113 13.113 0 0 0 0.19 -1.13c0.053 -0.426 0.123 -0.85 0.19 -1.274l0.04 -0.259c0.196 -1.263 0.546 -2.484 0.92 -3.705l0.106 -0.349c0.981 -3.156 2.342 -6.321 4.113 -9.115l0.154 -0.243c0.531 -0.829 1.095 -1.633 1.68 -2.425a38.883 38.883 0 0 0 0.434 -0.6 28.62 28.62 0 0 1 1.367 -1.77l0.165 -0.199c0.135 -0.159 0.277 -0.312 0.42 -0.463h0.228l0.074 -0.187c0.21 -0.366 0.501 -0.635 0.803 -0.925 0.394 -0.385 0.779 -0.768 1.133 -1.19 0.715 -0.834 1.558 -1.498 2.451 -2.129 0.287 -0.213 0.555 -0.437 0.823 -0.674 0.695 -0.613 1.429 -1.144 2.2 -1.659l0.297 -0.198c0.601 -0.395 1.215 -0.752 1.849 -1.092 0.251 -0.135 0.499 -0.273 0.745 -0.416 1.006 -0.58 2.03 -1.092 3.086 -1.574 0.223 -0.105 0.443 -0.216 0.663 -0.329C46.181 2.097 49.849 1.341 53.25 0.798l0.337 -0.056c5.362 -0.857 11.064 -0.339 16.267 1.122" fill="#A9141A"/><path d="M99.43 41.847c0.149 5.69 -1.314 11.36 -3.784 16.462l-0.118 0.244c-0.405 0.834 -0.821 1.654 -1.315 2.44 -0.147 0.246 -0.267 0.496 -0.384 0.758 -0.738 1.501 -1.888 2.824 -2.918 4.131a34.892 34.892 0 0 0 -0.696 0.913l-0.144 0.196a111.631 111.631 0 0 0 -0.371 0.512L89.51 67.731h-0.228v0.228h-0.228v0.228a15.964 15.964 0 0 1 -0.57 0.57 113.911 113.911 0 0 0 -0.398 0.402c-1.393 1.405 -1.393 1.405 -2.019 1.932 -0.238 0.202 -0.468 0.413 -0.698 0.623 -0.465 0.414 -0.954 0.779 -1.461 1.14 -0.337 0.242 -0.668 0.491 -0.998 0.741 -1.466 1.099 -2.954 2.073 -4.604 2.871a18.472 18.472 0 0 0 -0.698 0.372c-3.544 1.975 -7.378 3.082 -11.34 3.842 -0.225 0.043 -0.45 0.088 -0.676 0.132 -5.252 0.995 -10.929 0.562 -16.091 -0.686 -0.379 -0.088 -0.759 -0.164 -1.14 -0.241 -0.846 -0.18 -1.651 -0.445 -2.466 -0.733l-0.416 -0.143C43.868 78.45 42.334 77.755 40.821 76.967l-0.343 -0.178c-2.375 -1.243 -4.51 -2.611 -6.595 -4.3a10.034 10.034 0 0 0 -0.506 -0.38L33.181 71.95v-0.228l0.247 -0.09q0.6 -0.218 1.2 -0.438l0.227 -0.083c1.215 -0.444 2.425 -0.9 3.634 -1.36 1.228 -0.468 2.456 -0.933 3.7 -1.358 1.351 -0.462 2.684 -0.97 4.017 -1.481 1.033 -0.395 2.066 -0.789 3.099 -1.182q0.558 -0.213 1.116 -0.426l0.71 -0.27 0.346 -0.132a69.897 69.897 0 0 1 2.045 -0.737c0.606 -0.209 1.179 -0.447 1.746 -0.747 0.486 -0.251 0.996 -0.449 1.502 -0.655 1.055 -0.434 2.103 -0.88 3.15 -1.333 0.814 -0.351 1.625 -0.697 2.459 -0.998 1.12 -0.408 2.199 -0.911 3.287 -1.399 0.902 -0.404 1.807 -0.8 2.713 -1.195q0.289 -0.126 0.577 -0.252c1.06 -0.464 2.123 -0.915 3.199 -1.341 1.84 -0.731 3.599 -1.64 5.365 -2.53 1.008 -0.507 2.017 -1.006 3.039 -1.485 0.93 -0.438 1.833 -0.913 2.732 -1.411 0.824 -0.457 1.66 -0.889 2.499 -1.318 1.347 -0.692 2.653 -1.441 3.956 -2.212 0.562 -0.33 1.129 -0.653 1.696 -0.974l0.333 -0.188a56.67 56.67 0 0 1 1.862 -1.002c0.905 -0.468 1.774 -0.995 2.644 -1.525l0.205 -0.125c0.792 -0.483 1.577 -0.973 2.349 -1.487C99.088 41.847 99.088 41.847 99.43 41.847" fill="#A9141A"/><path d="M58.267 35.12h0.228v0.228h0.228v0.228h-0.228l0.228 0.342v0.456l0.364 -0.064c0.386 -0.044 0.636 -0.036 1.005 0.064v0.228l0.316 0.021 0.411 0.029 0.409 0.028C61.574 36.716 61.574 36.716 61.802 36.83v0.228l0.456 0.114v0.228h0.228c0.281 0.577 0.199 0.921 0.002 1.499C62.372 39.111 62.372 39.111 62.03 39.225a16.078 16.078 0 0 0 -0.57 0.57l-0.257 0.235c-0.24 0.231 -0.24 0.231 -0.314 0.677l1.482 0.114v2.623c0.709 -0.018 0.709 -0.018 1.419 -0.041 0.666 -0.008 1.239 0.071 1.774 0.497 0.148 0.222 0.148 0.222 0.228 0.456 -0.148 0.371 -0.287 0.629 -0.57 0.912h-0.342v0.798l0.684 0.228c0.042 0.851 0.042 0.851 -0.157 1.14 -0.185 0.114 -0.185 0.114 -0.413 0.114l0.014 -0.271c0.018 -0.318 0.018 -0.318 -0.242 -0.527a11.517 11.517 0 0 0 -0.584 -0.242L63.626 46.294v2.166h1.254l0.245 0.701c0.08 0.232 0.08 0.232 0.325 0.325v1.026h-2.509v-1.026l0.342 -0.114c0.117 -0.699 0.15 -1.394 0.178 -2.102l0.015 -0.352q0.018 -0.426 0.035 -0.853l-0.221 -0.107C63.056 45.838 63.056 45.838 62.942 45.724c0.02 -0.307 0.07 -0.608 0.114 -0.912l0.57 -0.114 0.036 0.328c0.042 0.39 0.042 0.39 0.42 0.584l0.57 0.114v-1.254c-0.477 -0.119 -0.91 -0.127 -1.397 -0.121l-0.257 0.001q-0.313 0.002 -0.626 0.006l0.007 0.373c0.008 0.46 0.014 0.92 0.018 1.38q0.003 0.298 0.009 0.595c0.006 0.286 0.008 0.573 0.01 0.859l0.007 0.265c0 0.793 -0.255 1.373 -0.779 1.965C60.321 50.752 58.692 50.787 57.127 50.627c-1.114 -0.222 -1.944 -0.685 -2.623 -1.596 -0.148 -0.443 -0.128 -0.862 -0.125 -1.323l0.001 -0.29c0.001 -0.306 0.002 -0.611 0.003 -0.917q0.001 -0.311 0.002 -0.622c0.001 -0.508 0.003 -1.016 0.006 -1.523h-2.395v1.482c0.532 -0.193 0.532 -0.193 1.026 -0.456 0.139 -0.355 0.139 -0.355 0.114 -0.684l0.57 0.114c0.012 0.164 0.021 0.328 0.029 0.492l0.016 0.277L53.706 45.838l-0.228 0.148c-0.257 0.177 -0.257 0.177 -0.28 0.484l0.007 0.342 0.005 0.371 0.012 0.387 0.006 0.391q0.008 0.478 0.022 0.956h0.228l0.043 0.221L53.592 49.373l0.228 0.114v1.026h-2.509v-1.026l0.342 -0.114 0.114 -1.824 -0.456 -0.228c-0.158 -0.287 -0.231 -0.484 -0.221 -0.812C51.197 46.294 51.197 46.294 51.482 46.137c0.323 -0.164 0.323 -0.164 0.378 -0.549L51.881 45.268l-0.264 -0.014C51.311 45.154 51.311 45.154 51.097 44.84c-0.137 -0.397 -0.189 -0.56 -0.014 -0.941a12.885 12.885 0 0 1 0.684 -0.342c0.011 -0.885 0.001 -1.745 -0.114 -2.623 0 -0.343 0.001 -0.588 0.114 -0.912 0.554 -0.342 0.554 -0.342 0.912 -0.342v0.342h0.57c0.071 0.264 0.071 0.264 0.114 0.57l-0.228 0.342h0.342c0.029 0.519 0.029 0.519 -0.114 0.773 -0.151 0.334 -0.136 0.601 -0.128 0.966l0.006 0.372L53.25 43.33l1.14 0.114v-2.623l1.482 -0.114 -0.114 -0.684h-0.228v-0.228l-0.207 -0.036c-0.285 -0.09 -0.406 -0.189 -0.592 -0.421v-0.228h-0.342c-0.304 -0.519 -0.378 -0.883 -0.342 -1.482h0.228l0.114 -0.456 0.456 -0.114v-0.228l0.296 -0.038c0.839 -0.101 0.839 -0.101 1.628 -0.383 0.435 -0.182 0.701 -0.137 1.155 -0.036l0.017 -0.216 0.026 -0.282c0.008 -0.093 0.016 -0.185 0.024 -0.281C58.039 35.348 58.039 35.348 58.267 35.12" fill="#851B1C"/><path d="M58.267 35.12h0.228v0.228h0.228v0.228h-0.228l0.228 0.342v0.456l0.364 -0.064c0.386 -0.044 0.636 -0.036 1.005 0.064v0.228l0.316 0.021 0.411 0.029 0.409 0.028C61.574 36.716 61.574 36.716 61.802 36.83v0.228l0.456 0.114v0.228h0.228c0.281 0.577 0.199 0.921 0.002 1.499C62.372 39.111 62.372 39.111 62.03 39.225a16.078 16.078 0 0 0 -0.57 0.57l-0.257 0.235c-0.24 0.231 -0.24 0.231 -0.314 0.677l1.482 0.114v2.623l0.456 0.114h-0.57v1.824h-2.509l-0.456 -1.026c-0.257 -0.301 -0.257 -0.301 -0.912 -0.342v-3.079c0.834 -0.043 0.834 -0.043 1.095 -0.055 0.411 -0.024 0.608 -0.054 0.957 -0.288l-0.221 -0.143c-0.259 -0.22 -0.304 -0.327 -0.349 -0.656l-0.456 -0.114v0.456l-0.684 -0.114v-0.228h-0.798l-0.114 0.342h-0.456v-0.342c0.263 -0.132 0.51 -0.175 0.798 -0.228l0.114 -0.684h0.228v-0.342h-0.342v0.342l-0.456 -0.114v-0.342h0.342l-0.114 -0.912 -0.208 0.05c-0.091 0.021 -0.182 0.042 -0.276 0.064l-0.273 0.064C56.899 37.742 56.899 37.742 56.442 37.742v0.456h-0.228l-0.114 -0.228c-0.55 -0.022 -0.969 0.028 -1.482 0.228 0.014 -0.321 0.014 -0.321 0.114 -0.684 0.42 -0.287 0.748 -0.387 1.254 -0.342v-0.228c-0.519 0.076 -0.931 0.166 -1.375 0.456 -0.316 0.489 -0.27 0.916 -0.221 1.482 -0.361 -0.428 -0.374 -0.695 -0.342 -1.254h0.228l0.114 -0.456 0.456 -0.114v-0.228l0.296 -0.038c0.839 -0.101 0.839 -0.101 1.628 -0.383 0.435 -0.182 0.701 -0.137 1.155 -0.036l0.017 -0.216 0.026 -0.282c0.008 -0.093 0.016 -0.185 0.024 -0.281C58.039 35.348 58.039 35.348 58.267 35.12" fill="#875C13"/><path d="M55.986 36.944v0.228l-0.241 0.051c-0.315 0.078 -0.603 0.158 -0.899 0.291 -0.201 0.344 -0.201 0.344 -0.228 0.684l0.292 -0.171c0.43 -0.188 0.726 -0.199 1.19 -0.171l0.114 0.342h0.228l-0.114 -0.57 1.596 -0.114 0.114 0.912h-0.342l0.114 0.342 0.342 0.114v-0.342h0.342v0.342h-0.228l-0.114 0.684 0.2 -0.071C58.609 39.453 58.609 39.453 59.065 39.681l-1.71 0.114v0.342c0.225 -0.04 0.225 -0.04 0.456 -0.114l0.114 -0.228h0.798v0.228l0.684 0.114v-0.456h0.684l-0.114 0.57 0.456 0.114 0.114 0.456c-0.441 0.144 -0.882 0.127 -1.34 0.121L58.381 40.935v3.079h0.684c0.52 0.485 0.56 0.622 0.684 1.368h2.509v-1.824c0.908 -0.182 2.085 -0.321 2.95 0.086 0.34 0.245 0.45 0.333 0.584 0.713 -0.148 0.371 -0.287 0.629 -0.57 0.912h-0.342v0.798l0.684 0.228c0.042 0.851 0.042 0.851 -0.157 1.14 -0.185 0.114 -0.185 0.114 -0.413 0.114l0.014 -0.271c0.018 -0.318 0.018 -0.318 -0.242 -0.527a11.517 11.517 0 0 0 -0.584 -0.242L63.626 46.294v2.166h1.254l0.245 0.701c0.08 0.232 0.08 0.232 0.325 0.325v1.026h-2.509v-1.026l0.342 -0.114c0.117 -0.699 0.15 -1.394 0.178 -2.102l0.015 -0.352q0.018 -0.426 0.035 -0.853l-0.221 -0.107C63.056 45.838 63.056 45.838 62.942 45.724c0.02 -0.307 0.07 -0.608 0.114 -0.912l0.57 -0.114 0.036 0.328c0.042 0.39 0.042 0.39 0.42 0.584l0.57 0.114v-1.254c-0.738 -0.185 -1.519 -0.114 -2.281 -0.114v4.219h-0.114v-3.079h-2.623l-0.114 -0.684h-0.228v1.14h-0.228l-0.107 0.221C58.837 46.408 58.837 46.408 58.723 46.522c-0.612 0.053 -0.612 0.053 -0.898 -0.157C57.697 46.18 57.697 46.18 57.697 45.952h-0.228l-0.114 -1.026 -0.342 0.456v-0.342l-1.71 -0.114v-0.798h0.228l-0.114 -1.596h0.228l-0.114 -0.684h0.57v-0.456h0.684v0.456h0.456l-0.114 0.684h0.228v1.596l0.57 -0.228h0.342v-2.965h-3.763v2.623l-0.456 -0.114h0.342v-2.623l1.482 -0.114 -0.114 -0.684h-0.228v-0.228l-0.207 -0.036c-0.285 -0.09 -0.406 -0.189 -0.592 -0.421v-0.228h-0.342c-0.2 -1.245 -0.2 -1.245 0.135 -1.725L54.846 37.172l0.221 -0.15c0.312 -0.104 0.593 -0.093 0.919 -0.078" fill="#624114"/><path d="M57.355 44.812h0.114v1.14h0.228l0.143 0.228c0.188 0.263 0.188 0.263 0.542 0.285 0.354 -0.022 0.354 -0.022 0.542 -0.285l0.143 -0.228h0.228v-1.14h0.228l0.114 0.684h2.623c0.01 0.475 0.02 0.949 0.025 1.424q0.003 0.242 0.009 0.484c0.006 0.233 0.008 0.465 0.01 0.698l0.007 0.423c-0.077 0.582 -0.352 0.929 -0.771 1.325 -0.365 0.246 -0.689 0.403 -1.105 0.549 -0.717 -0.239 -1.216 -0.433 -1.71 -1.026 -0.15 -0.321 -0.15 -0.321 -0.228 -0.57h-0.228l-0.078 0.264c-0.183 0.374 -0.347 0.475 -0.72 0.648h-0.342q-0.009 -0.965 -0.013 -1.93 -0.002 -0.328 -0.005 -0.657c-0.003 -0.314 -0.004 -0.629 -0.005 -0.943l-0.004 -0.297v-0.277l-0.002 -0.243C57.127 45.154 57.127 45.154 57.355 44.812" fill="#A55C0A"/><path d="M58.381 40.935h3.877v4.447h-2.509l-0.456 -1.026c-0.257 -0.301 -0.257 -0.301 -0.912 -0.342z" fill="#B9B6B5"/><path d="M65.208 43.643c0.34 0.245 0.45 0.333 0.584 0.713 -0.148 0.371 -0.287 0.629 -0.57 0.912h-0.342v0.798l0.684 0.228c0.042 0.851 0.042 0.851 -0.157 1.14 -0.185 0.114 -0.185 0.114 -0.413 0.114l0.014 -0.271c0.018 -0.318 0.018 -0.318 -0.242 -0.527a11.517 11.517 0 0 0 -0.584 -0.242L63.626 46.294v2.166h1.254l0.245 0.701c0.08 0.232 0.08 0.232 0.325 0.325v1.026h-2.509v-1.026l0.342 -0.114c0.117 -0.699 0.15 -1.394 0.178 -2.102l0.015 -0.352q0.018 -0.426 0.035 -0.853l-0.221 -0.107C63.056 45.838 63.056 45.838 62.942 45.724c0.02 -0.307 0.07 -0.608 0.114 -0.912l0.57 -0.114 0.036 0.328c0.042 0.39 0.042 0.39 0.42 0.584l0.57 0.114v-1.254c-0.738 -0.185 -1.519 -0.114 -2.281 -0.114v4.219h-0.114v-3.079h-2.623l-0.114 -0.684h-0.228v1.14h-0.228l-0.107 0.221C58.837 46.408 58.837 46.408 58.723 46.522c-0.612 0.053 -0.612 0.053 -0.898 -0.157C57.697 46.18 57.697 46.18 57.697 45.952h-0.228c-0.029 -1.412 -0.029 -1.412 0.285 -1.817 0.44 -0.187 0.842 -0.224 1.311 -0.121 0.518 0.453 0.568 0.671 0.684 1.368h2.509v-1.824c0.908 -0.182 2.085 -0.321 2.95 0.086" fill="#853C23"/><path d="m53.136 44.698 0.57 0.114c0.012 0.164 0.021 0.328 0.029 0.492l0.016 0.277L53.706 45.838l-0.228 0.148c-0.257 0.177 -0.257 0.177 -0.28 0.484l0.007 0.342 0.005 0.371 0.012 0.387 0.006 0.391q0.008 0.478 0.022 0.956h0.228l0.043 0.221L53.592 49.373l0.228 0.114v1.026h-2.509v-1.026l0.342 -0.114 0.114 -1.824 -0.456 -0.228c-0.158 -0.287 -0.231 -0.484 -0.221 -0.812 0.24 -0.48 0.86 -0.634 1.333 -0.819 0.327 -0.136 0.327 -0.136 0.599 -0.306 0.157 -0.359 0.157 -0.359 0.114 -0.684" fill="#AA0D27"/><path d="M54.504 40.935h3.763v2.965c-0.57 0.228 -0.57 0.228 -0.912 0.228v-1.596h-0.228l0.114 -0.684h-0.456v-0.456h-0.684v0.456h-0.57l0.114 0.684h-0.228l0.057 0.221c0.075 0.46 0.066 0.91 0.057 1.375h-0.228v0.798h1.824l-0.114 0.456h-2.509z" fill="#B30126"/><path d="M52.68 39.681v0.342h0.57c0.071 0.264 0.071 0.264 0.114 0.57l-0.228 0.342h0.342c0.029 0.519 0.029 0.519 -0.114 0.773 -0.151 0.334 -0.136 0.601 -0.128 0.966l0.006 0.372L53.25 43.33l1.14 0.228v0.798h-2.395l0.114 1.596h-0.228v-0.684l-0.264 -0.014C51.311 45.154 51.311 45.154 51.097 44.84c-0.137 -0.397 -0.189 -0.56 -0.014 -0.941a12.885 12.885 0 0 1 0.684 -0.342c0.011 -0.885 0.001 -1.745 -0.114 -2.623 0 -0.343 0.001 -0.588 0.114 -0.912 0.554 -0.342 0.554 -0.342 0.912 -0.342" fill="#9E312D"/><path d="m63.626 44.698 0.014 0.314c0.108 0.4 0.206 0.513 0.56 0.719 0.444 0.214 0.902 0.392 1.364 0.564 0.042 0.851 0.042 0.851 -0.157 1.14 -0.185 0.114 -0.185 0.114 -0.413 0.114l0.014 -0.271c0.018 -0.318 0.018 -0.318 -0.242 -0.527a11.517 11.517 0 0 0 -0.584 -0.242L63.626 46.294v2.166h1.254l0.245 0.701c0.08 0.232 0.08 0.232 0.325 0.325v1.026h-2.509v-1.026l0.342 -0.114c0.117 -0.699 0.15 -1.394 0.178 -2.102l0.015 -0.352q0.018 -0.426 0.035 -0.853l-0.221 -0.107C63.056 45.838 63.056 45.838 62.942 45.724c0.006 -0.207 0.006 -0.207 0.036 -0.456l0.027 -0.249L63.056 44.812c0.228 -0.114 0.228 -0.114 0.57 -0.114" fill="#A51328"/><path d="M59.293 44.812h0.228l0.114 0.684h2.623c0.01 0.475 0.02 0.949 0.025 1.424q0.003 0.242 0.009 0.484c0.006 0.233 0.008 0.465 0.01 0.698l0.007 0.423c-0.077 0.582 -0.352 0.929 -0.771 1.325 -0.365 0.246 -0.689 0.403 -1.105 0.549 -0.879 -0.293 -1.41 -0.576 -1.938 -1.368 -0.117 -0.433 -0.126 -0.843 -0.121 -1.29l0.003 -0.369L58.381 47.092l0.456 -0.114c0.138 0.413 0.126 0.79 0.121 1.219l-0.002 0.242q-0.002 0.296 -0.006 0.591l0.456 0.114v0.342c0.639 0.094 1.188 0.122 1.824 0v-0.342l0.456 -0.114 -0.002 -0.244q-0.003 -0.548 -0.005 -1.096l-0.003 -0.384 -0.001 -0.37 -0.002 -0.34c0.012 -0.272 0.049 -0.499 0.127 -0.759l-0.192 0.025c-1.548 0.188 -1.548 0.188 -1.974 -0.025v0.456l0.57 -0.114v1.026c-0.228 -0.114 -0.228 -0.114 -0.342 -0.456 -0.368 -0.245 -0.488 -0.251 -0.912 -0.228l0.114 -0.57h0.228z" fill="#AF0824"/><path d="M55.986 36.944v0.228l-0.241 0.051c-0.315 0.078 -0.603 0.158 -0.899 0.291 -0.201 0.344 -0.201 0.344 -0.228 0.684l0.292 -0.171c0.43 -0.188 0.726 -0.199 1.19 -0.171l0.114 0.342h0.228l-0.114 -0.57 1.596 -0.114 0.114 0.912h-0.342l0.114 0.342 0.342 0.114v-0.342h0.342v0.342h-0.228l-0.114 0.456 -0.57 -0.114v-0.342h-0.228v0.456c-0.19 0.005 -0.38 0.005 -0.57 0l-0.114 -0.114 -0.114 0.228h0.228v0.228c-1.445 0.063 -1.445 0.063 -2.052 -0.342v-0.228h-0.342c-0.2 -1.245 -0.2 -1.245 0.135 -1.725L54.846 37.172l0.221 -0.15c0.312 -0.104 0.593 -0.093 0.919 -0.078" fill="#89361C"/><path d="M60.433 41.163c0.556 0.214 0.556 0.214 0.684 0.342 0.228 0.005 0.456 0.005 0.684 0 -0.1 0.67 -0.1 0.67 -0.228 0.798a12.543 12.543 0 0 0 -0.007 0.634l0.003 0.35L61.574 43.558l-0.456 0.114 0.121 0.171c0.159 0.425 0.067 0.752 -0.007 1.197l-0.456 -0.114v-0.228h-0.228v-0.228l-0.798 0.114v-0.228h-0.228l0.114 -0.456h0.342l0.114 -0.57c-0.315 0.06 -0.607 0.126 -0.912 0.228l-0.114 -0.684 0.228 -0.114c-0.03 -0.226 -0.03 -0.226 -0.114 -0.456l-0.342 -0.114 0.114 -0.456 0.456 -0.114 0.086 0.278c0.111 0.312 0.111 0.312 0.385 0.385L60.091 42.303v-0.228l-0.342 -0.114v-0.228l0.684 -0.114z" fill="#98577E"/><path d="M57.355 44.812h0.114v1.14h0.228l0.143 0.228c0.187 0.265 0.187 0.265 0.542 0.271 0.362 -0.019 0.362 -0.019 0.684 -0.271 0.114 0.228 0.114 0.228 0.114 0.57l-0.684 0.342v1.71h-0.228l-0.078 0.264c-0.183 0.374 -0.347 0.475 -0.72 0.648h-0.342q-0.009 -0.965 -0.013 -1.93 -0.002 -0.328 -0.005 -0.657c-0.003 -0.314 -0.004 -0.629 -0.005 -0.943l-0.004 -0.297v-0.277l-0.002 -0.243C57.127 45.154 57.127 45.154 57.355 44.812" fill="#A00724"/><path d="M58.381 40.935h3.877v0.114h-1.824v0.57l-0.684 0.114 0.171 0.157C60.091 42.075 60.091 42.075 60.091 42.303c-0.271 -0.029 -0.271 -0.029 -0.57 -0.114 -0.15 -0.235 -0.15 -0.235 -0.228 -0.456l-0.342 0.228v0.228l0.171 0.171 0.171 0.171v0.228l0.228 0.114h-0.456l0.114 0.684 0.257 -0.178C59.749 43.216 59.749 43.216 60.013 43.251L60.205 43.33l-0.228 0.57h-0.342l-0.114 0.456h0.228l-0.114 0.228h-0.228l-0.143 -0.221c-0.224 -0.315 -0.224 -0.315 -0.884 -0.349z" fill="#B3AFAE"/><path d="M57.355 38.883h0.228l0.114 0.342c0.23 0.084 0.23 0.084 0.456 0.114v0.228l0.2 -0.071C58.609 39.453 58.609 39.453 59.065 39.681l-1.71 0.114v0.342c0.225 -0.04 0.225 -0.04 0.456 -0.114l0.114 -0.228h0.798v0.228l0.684 0.114v-0.456h0.684l-0.114 0.57 0.456 0.114c-0.343 0.172 -0.658 0.125 -1.04 0.121l-0.243 -0.001c-0.343 -0.002 -0.687 -0.005 -1.03 -0.008q-0.376 -0.003 -0.751 -0.005l-0.455 -0.004c-0.346 -0.014 -0.346 -0.014 -0.585 0.125l0.456 0.228c-0.114 0.114 -0.114 0.114 -0.326 0.127l-0.273 -0.002 -0.266 -0.001 -0.34 -0.003L54.504 40.935v2.623l-0.456 -0.114h0.342v-2.623l1.482 -0.114 -0.114 -0.684h-0.228v-0.228l-0.214 -0.043C55.074 39.681 55.074 39.681 54.846 39.453l0.2 0.025c0.409 0.049 0.805 0.089 1.218 0.089 0.292 0 0.292 0 0.52 0.114v-0.228h-0.228l0.114 -0.342 0.684 0.228z" fill="#64450E"/><path d="M59.635 45.838c0.77 -0.014 0.77 -0.014 1.026 0.114v0.228h-0.228l0.114 0.684 0.114 -0.114a10.604 10.604 0 0 1 0.456 -0.114v0.456c-0.656 0.342 -0.656 0.342 -0.912 0.342l-0.143 0.178C59.863 47.777 59.863 47.777 59.5 47.741L59.179 47.662v0.912l0.228 -0.114 0.036 -0.221L59.521 48.005c0.292 -0.143 0.292 -0.143 0.57 -0.228 -0.185 0.656 -0.185 0.656 -0.57 0.912l-0.114 0.342 0.57 0.114v0.228h0.228l-0.029 -0.208 -0.035 -0.276 -0.036 -0.273c-0.014 -0.27 0.021 -0.469 0.1 -0.725h0.228c0.147 0.961 0.147 0.961 0 1.482h0.228v-0.228l0.221 -0.036L61.117 49.031l0.114 -0.342v0.342l0.228 0.114h-0.228v0.342c-0.693 0.204 -1.144 0.261 -1.824 0v-0.342l-0.456 -0.114a56.214 56.214 0 0 1 -0.114 -1.254l-0.024 -0.27c-0.021 -0.412 -0.01 -0.599 0.252 -0.927l0.228 -0.171c0.533 0.168 0.533 0.168 0.72 0.47L60.091 47.092l-0.007 -0.328C60.091 46.408 60.091 46.408 60.205 46.18l-0.57 0.114z" fill="#A55B0A"/><path d="M58.267 35.12h0.228v0.228h0.228v0.228h-0.228l0.228 0.342v0.456l0.364 -0.064c0.386 -0.044 0.636 -0.036 1.005 0.064v0.228l0.316 0.021 0.411 0.029 0.409 0.028C61.574 36.716 61.574 36.716 61.802 36.83v0.228l0.456 0.114v0.228h0.228c0.253 0.575 0.211 0.896 0 1.482h-0.228l0.086 -0.413c0.05 -0.4 0.028 -0.499 -0.157 -0.884 -0.478 -0.528 -0.961 -0.557 -1.64 -0.613C60.319 36.944 60.319 36.944 60.091 36.83l-0.114 0.228 -0.342 -0.228c-0.232 0.001 -0.232 0.001 -0.47 0.05L58.723 36.944l-0.114 -0.114 -0.114 1.14h-0.342c-0.014 -0.869 -0.014 -0.869 0.114 -1.254 -0.197 -0.029 -0.394 -0.054 -0.591 -0.078l-0.333 -0.044c-0.4 0.01 -0.564 0.143 -0.9 0.351 -0.36 0.063 -0.36 0.063 -0.741 0.1 -0.46 0.066 -0.717 0.114 -1.119 0.356 -0.277 0.492 -0.241 0.93 -0.192 1.482 -0.361 -0.428 -0.374 -0.695 -0.342 -1.254h0.228l0.114 -0.456 0.456 -0.114v-0.228l0.296 -0.038c0.839 -0.101 0.839 -0.101 1.628 -0.383 0.435 -0.182 0.701 -0.137 1.155 -0.036l0.017 -0.216 0.026 -0.282c0.008 -0.093 0.016 -0.185 0.024 -0.281C58.039 35.348 58.039 35.348 58.267 35.12" fill="#886F1B"/><path d="M58.723 37.514c0.381 -0.027 0.652 -0.012 1.012 0.121C59.977 37.856 59.977 37.856 60.013 38.277L59.977 38.655h-0.456v0.342h0.456v-0.228h0.342v0.342h0.456v-0.342h-0.342q-0.007 -0.399 0 -0.798c0.114 -0.114 0.114 -0.114 0.485 -0.143 0.452 0.03 0.655 0.079 0.998 0.371 0.093 0.306 0.093 0.306 0.114 0.57 -0.368 0.245 -0.488 0.251 -0.912 0.228l0.171 0.157C61.46 39.339 61.46 39.339 61.46 39.567h-0.456v-0.342h-0.228v0.228h-0.57v-0.342h-0.228v0.228h-0.57v-0.228l-0.342 0.228c-0.306 -0.043 -0.306 -0.043 -0.57 -0.114v-0.228l0.456 -0.114v-0.342l-0.228 -0.114z" fill="#AE0625"/><path d="M56.1 41.505h0.57l-0.114 1.026h0.228v-0.456h0.228v0.57h0.228l-0.114 0.684h-0.456v0.342h0.456v0.684l0.228 0.114 -0.114 0.342h-0.57l-0.114 -0.456h-0.342l-0.114 0.456h-0.684v-0.57h0.228v-0.57h0.456v-0.342h-0.342v-0.342h-0.228v-0.342h0.228v-0.57h0.228v0.57h0.342v-0.912h-0.228z" fill="#9A7901"/><path d="M52.68 39.681v0.342h0.57c0.071 0.264 0.071 0.264 0.114 0.57l-0.228 0.342h0.342c0.025 0.453 -0.013 0.597 -0.228 1.026h-1.482c-0.169 -1.456 -0.169 -1.456 0 -1.938 0.554 -0.342 0.554 -0.342 0.912 -0.342" fill="#8C6E09"/><path d="M65.108 40.137c0 0.456 0 0.456 -0.171 0.656L64.766 40.935h0.342c0.025 0.453 -0.013 0.597 -0.228 1.026h-1.368c-0.219 -0.437 -0.252 -0.567 -0.228 -1.026v-0.342c0.035 -0.191 0.073 -0.381 0.114 -0.57 0.656 -0.32 1.074 -0.149 1.71 0.114" fill="#5A4210"/><path d="M58.267 48.803h0.228a85.405 85.405 0 0 1 0.456 0.684l0.342 0.228v0.228l1.026 0.228 -0.228 0.114v0.228c-0.552 0.158 -1.097 0.139 -1.668 0.143 -0.162 0.003 -0.162 0.003 -0.327 0.007 -0.759 0.004 -1.397 -0.12 -2.11 -0.378v-0.114l0.2 -0.009c0.783 -0.057 1.242 -0.257 1.774 -0.861 0.192 -0.256 0.192 -0.256 0.306 -0.499" fill="#997667"/><path d="m57.768 36.538 0.411 0.035L58.495 36.602l-0.228 0.114c-0.075 0.345 -0.075 0.345 -0.114 0.684a97.149 97.149 0 0 1 -0.599 0.171l-0.337 0.096C56.899 37.742 56.899 37.742 56.442 37.742v0.456h-0.228l-0.114 -0.228c-0.55 -0.022 -0.969 0.028 -1.482 0.228 0.014 -0.321 0.014 -0.321 0.114 -0.684 0.42 -0.287 0.748 -0.387 1.254 -0.342v-0.228l0.385 -0.164c0.56 -0.242 0.782 -0.297 1.397 -0.242" fill="#8C6F0C"/><path d="m63.533 49.358 0.292 0 0.307 0.001 0.306 -0.001 0.292 0 0.269 0C65.222 49.373 65.222 49.373 65.45 49.487v1.026h-2.509c0 -1.155 0 -1.155 0.591 -1.155" fill="#52606B"/><path d="m57.925 37.514 0.114 0.912h-0.342l0.114 0.342 0.342 0.114v-0.342h0.342v0.342h-0.228l-0.114 0.456 -0.57 -0.114v-0.342h-0.228v0.456h-0.798q-0.286 0.054 -0.57 0.114v-0.228l0.342 -0.114c0.149 -0.356 0.227 -0.672 0.271 -1.055 0.071 -0.314 0.071 -0.314 0.257 -0.47 0.361 -0.095 0.697 -0.086 1.069 -0.071" fill="#B00625"/><path d="M51.311 49.487h2.509v1.026h-2.509z" fill="#576577"/><path d="m58.495 46.978 0.456 0.114v1.938l0.456 0.114v0.342c0.639 0.094 1.188 0.122 1.824 0l-0.114 0.342 0.456 -0.114c-0.307 0.379 -0.688 0.523 -1.14 0.684 -0.879 -0.293 -1.41 -0.576 -1.938 -1.368 -0.116 -0.43 -0.129 -0.839 -0.128 -1.283l-0.001 -0.365C58.381 47.092 58.381 47.092 58.495 46.978" fill="#A91329"/><path d="M63.626 46.294c1.126 0.328 1.126 0.328 1.254 0.456 0.008 0.288 0.01 0.574 0.007 0.862l-0.002 0.246q-0.002 0.301 -0.006 0.602h-1.254z" fill="#B9B7B5"/><path d="M53.136 46.18v2.281h-1.14v-1.938c0.884 -0.342 0.884 -0.342 1.14 -0.342" fill="#BAB8B7"/><path d="M56.214 45.496h0.456v4.561l0.342 0.114h-1.254l0.456 -0.114z" fill="#906908"/><path d="M51.995 46.75v1.71h1.254v0.456h0.228l0.114 0.57h-2.166l0.228 -0.114v-2.509c0.228 -0.114 0.228 -0.114 0.342 -0.114" fill="#786211"/><path d="M55.302 45.496h0.456v4.561l-0.57 -0.228z" fill="#8E6905"/><path d="M63.512 41.961h1.368v1.596l-1.368 -0.114z" fill="#B6B3B2"/><path d="M51.881 41.961h1.254l0.114 1.482c-0.357 0.089 -0.586 0.127 -0.941 0.121L51.881 43.558z" fill="#998C7E"/><path d="m63.512 46.18 0.57 0.114 -0.228 0.114 -0.228 -0.114v2.166h1.254c0.228 0.456 0.228 0.456 0.228 0.912h-1.824l0.114 -0.798q0.023 -0.301 0.036 -0.602l0.014 -0.32 0.014 -0.326 0.015 -0.335q0.018 -0.406 0.035 -0.812" fill="#8A6E20"/><path d="m58.837 44.47 0.228 0.228 -0.114 0.342 -0.228 -0.228 -0.228 0.57h-0.228v-0.342h-0.228v-0.228h-0.228l-0.114 0.456 0.228 0.114c0.071 0.349 0.071 0.349 0.114 0.684h0.228v0.228h0.228v-0.228h0.228l0.114 -0.798h0.342c0.039 0.421 0.025 0.639 -0.185 1.012C58.723 46.522 58.723 46.522 58.374 46.579c-0.335 -0.057 -0.335 -0.057 -0.549 -0.214C57.697 46.18 57.697 46.18 57.697 45.952h-0.228c-0.052 -0.65 0.045 -0.975 0.456 -1.482 0.331 -0.166 0.558 -0.081 0.912 0" fill="#183C7F"/><path d="M59.635 45.838c0.77 -0.014 0.77 -0.014 1.026 0.114v0.228h-0.228l0.114 0.684 0.114 -0.114a10.604 10.604 0 0 1 0.456 -0.114v0.456c-0.636 0.412 -1.209 0.377 -1.938 0.342 0 -0.373 0.034 -0.667 0.114 -1.026 0.533 0.168 0.533 0.168 0.72 0.47L60.091 47.092l-0.007 -0.328C60.091 46.408 60.091 46.408 60.205 46.18l-0.57 0.114z" fill="#A3590B"/><path d="m63.398 40.593 0.228 0.114v0.342h1.026l0.114 -0.228 0.342 0.114c0.025 0.453 -0.013 0.597 -0.228 1.026h-1.368c-0.217 -0.433 -0.263 -0.57 -0.228 -1.026z" fill="#9C7B02"/><path d="M52.68 39.681v0.342h0.57c0.1 0.328 0.137 0.509 0.014 0.834 -0.384 0.305 -0.796 0.228 -1.269 0.192l-0.114 -0.342 -0.228 -0.114c0.014 -0.264 0.014 -0.264 0.114 -0.57 0.554 -0.342 0.554 -0.342 0.912 -0.342" fill="#5E3E12"/><path d="M63.512 44.242q0.282 0.024 0.563 0.05l0.317 0.028C64.652 44.356 64.652 44.356 64.766 44.47c0.008 0.23 0.01 0.461 0.007 0.691l-0.003 0.382L64.766 45.838c-0.432 -0.114 -0.766 -0.206 -1.14 -0.456 -0.058 -0.272 -0.058 -0.272 -0.078 -0.584l-0.023 -0.314z" fill="#B6B2AF"/><path d="M56.67 45.496h0.342v4.561h-0.342z" fill="#A40624"/><path d="M53.136 44.242v1.14c-0.755 0.456 -0.755 0.456 -1.14 0.456v-1.482c0.409 -0.102 0.724 -0.123 1.14 -0.114" fill="#B9B5B5"/><path d="m60.205 43.33 0.57 0.228 -0.114 0.684h0.456l-0.114 -0.456c0.178 0.114 0.178 0.114 0.342 0.342 -0.004 0.315 -0.058 0.6 -0.114 0.912l-0.456 -0.114v-0.228h-0.228v-0.228l-0.798 0.114v-0.228h-0.228l0.114 -0.456h0.342l0.05 -0.221C60.091 43.444 60.091 43.444 60.205 43.33" fill="#A26D8D"/><path d="m57.469 49.943 0.139 0.173c0.202 0.204 0.202 0.204 0.544 0.182l0.392 -0.041 0.391 -0.037c0.342 -0.039 0.342 -0.039 0.612 -0.114 0.278 -0.067 0.497 -0.003 0.771 0.065l-0.228 0.114v0.228c-0.552 0.158 -1.097 0.139 -1.668 0.143l-0.327 0.007c-0.759 0.004 -1.397 -0.12 -2.11 -0.378v-0.114c0.107 -0.01 0.107 -0.01 0.216 -0.021l0.282 -0.029 0.281 -0.028c0.264 -0.038 0.437 -0.15 0.703 -0.15" fill="#9F925E"/><path d="M56.328 41.733v0.912h-0.342v-0.57h-0.228v0.57h-0.228v0.342h0.228v0.342h0.342v0.342h-0.456v0.57h-0.228v0.57h0.684l0.114 -0.57 0.456 0.114v0.57h-1.368v-0.798h0.228l-0.114 -1.596h0.228l-0.114 -0.684c0.542 -0.114 0.542 -0.114 0.798 -0.114" fill="#77391A"/><path d="M56.1 37.856c0.151 0.249 0.234 0.396 0.207 0.691C56.214 38.769 56.214 38.769 55.872 39.111l-1.14 -0.342v-0.57c0.431 -0.379 0.811 -0.375 1.368 -0.342" fill="#AF0725"/><path d="M60.091 36.83q0.303 0.024 0.606 0.05c0.112 0.009 0.225 0.018 0.341 0.028C61.345 36.944 61.345 36.944 61.688 37.058l-0.114 0.342 -0.912 -0.228 0.007 0.335C60.661 37.856 60.661 37.856 60.547 37.97a26.91 26.91 0 0 0 -0.114 0.798h0.342v0.342h-0.456v-0.342h-0.342v0.228h-0.456v-0.342h0.456l-0.114 -0.912 0.342 -0.114z" fill="#8A711F"/><path d="M54.96 45.496h0.342v4.219l-0.342 -0.114z" fill="#AD0525"/><path d="M60.433 41.163c0.556 0.214 0.556 0.214 0.684 0.342 0.228 0.005 0.456 0.005 0.684 0 -0.1 0.67 -0.1 0.67 -0.228 0.798a12.543 12.543 0 0 0 -0.007 0.634l0.003 0.35L61.574 43.558l-0.456 0.114 -0.114 -0.228 0.228 -0.114v-1.482h-0.798l-0.114 0.342 -0.57 -0.228v-0.228l0.684 -0.114z" fill="#986683"/><path d="M58.723 44.698h0.342c0.228 0.228 0.228 0.228 0.25 0.475l-0.008 0.281 -0.006 0.282L59.293 45.952h-0.114v-0.684h-0.342l-0.114 0.798h-0.228v0.228h-0.228v-0.228h-0.228a48.005 48.005 0 0 1 -0.178 -0.499l-0.1 -0.281C57.697 45.04 57.697 45.04 57.811 44.812h0.228v0.228h0.228v0.342h0.228l0.05 -0.278C58.609 44.812 58.609 44.812 58.723 44.698" fill="#27466A"/><path d="m56.556 38.084 0.057 0.221c0.167 0.288 0.167 0.288 0.613 0.306l0.245 0.018c0.265 0.029 0.457 0.112 0.682 0.253v-0.342h0.342v0.342h-0.228l-0.114 0.456 -0.57 -0.114v-0.342h-0.228v0.456h-0.798q-0.286 0.054 -0.57 0.114v-0.228l0.342 -0.114c0.149 -0.362 0.228 -0.634 0.228 -1.026" fill="#8E271A"/><path d="M58.723 37.514c0.381 -0.027 0.652 -0.012 1.012 0.121C59.977 37.856 59.977 37.856 60.013 38.277L59.977 38.655c-0.706 0.149 -0.706 0.149 -1.076 0.007 -0.281 -0.371 -0.208 -0.691 -0.178 -1.147" fill="#AF0525"/><path d="m53.067 43.428 0.339 0.001 0.338 -0.001C54.048 43.444 54.048 43.444 54.39 43.558v0.798c-0.19 0.005 -0.38 0.005 -0.57 0l-0.114 -0.114a7.982 7.982 0 0 0 -0.463 -0.064L52.794 44.128a10.034 10.034 0 0 1 -0.114 -0.57c0.114 -0.114 0.114 -0.114 0.387 -0.129" fill="#AB251D"/><path d="M58.039 36.374v0.342l-0.204 -0.037 -0.273 -0.041 -0.269 -0.044c-0.363 0.011 -0.542 0.164 -0.85 0.351 -0.36 0.063 -0.36 0.063 -0.741 0.1 -0.46 0.066 -0.717 0.114 -1.119 0.356 -0.277 0.492 -0.241 0.93 -0.192 1.482 -0.361 -0.428 -0.374 -0.695 -0.342 -1.254h0.228l0.114 -0.456 0.456 -0.114v-0.228l0.296 -0.038c0.836 -0.1 0.836 -0.1 1.621 -0.383 0.484 -0.199 0.767 -0.134 1.276 -0.036" fill="#A99242"/><path d="m59.6 36.31 0.279 0.035L60.091 36.374v0.228c0.157 0.01 0.157 0.01 0.316 0.021l0.411 0.029 0.409 0.028C61.574 36.716 61.574 36.716 61.802 36.83v0.228l0.456 0.114v0.228h0.228c0.253 0.575 0.211 0.896 0 1.482h-0.228l0.086 -0.413c0.05 -0.4 0.028 -0.499 -0.157 -0.884 -0.48 -0.53 -0.941 -0.541 -1.617 -0.601C60.319 36.944 60.319 36.944 59.977 36.766c-0.463 -0.222 -0.864 -0.194 -1.368 -0.164 0.214 -0.429 0.576 -0.346 0.991 -0.292" fill="#AB9446"/><path d="M54.504 45.496h0.342v3.649l-0.228 -0.456 -0.228 -0.114z" fill="#9D7A00"/><path d="M59.065 38.655h0.456v0.342h0.456v-0.228h0.342v0.342h0.456v-0.228h0.798l-0.456 0.114 0.171 0.157C61.46 39.339 61.46 39.339 61.46 39.567h-0.456v-0.342h-0.228v0.228h-0.57v-0.342h-0.228v0.228h-0.57v-0.228l-0.342 0.228c-0.306 -0.043 -0.306 -0.043 -0.57 -0.114v-0.228l0.221 -0.043L58.951 38.883z" fill="#981625"/><path d="M59.863 36.83c0.278 0.178 0.278 0.178 0.456 0.342l-0.114 0.57c-0.521 -0.063 -0.989 -0.162 -1.482 -0.342 0.043 -0.278 0.043 -0.278 0.114 -0.57 0.359 -0.18 0.642 -0.08 1.026 0" fill="#E6B401"/><path d="M57.127 46.18c0.342 0.342 0.342 0.342 0.381 0.674 -0.002 0.132 -0.003 0.264 -0.005 0.4l-0.003 0.433 -0.009 0.453q-0.003 0.229 -0.005 0.457 -0.006 0.559 -0.017 1.118h-0.342z" fill="#9A7900"/><path d="M65.222 43.786c0.221 0.093 0.221 0.093 0.456 0.228 0.114 0.342 0.114 0.342 -0.036 0.691C65.45 45.04 65.45 45.04 65.222 45.268h-0.342v0.684l-0.684 -0.114 0.456 -0.114v-1.368l0.456 0.114 -0.114 -0.342z" fill="#9D322B"/><path d="M53.136 46.18v2.281h-0.456v-1.938l-0.684 0.114c0.358 -0.239 0.701 -0.456 1.14 -0.456" fill="#9A9090"/><path d="M56.556 39.795h0.228v0.456l-0.342 0.228 -0.114 0.114 0.456 0.228c-0.114 0.114 -0.114 0.114 -0.326 0.127l-0.273 -0.002 -0.266 -0.001 -0.34 -0.003L54.504 40.935v2.623l-0.456 -0.114h0.342v-2.623l1.482 -0.114 0.228 -0.798 0.456 0.114z" fill="#8F610E"/><path d="M55.986 36.944v0.228l-1.14 0.342c-0.079 0.425 -0.127 0.822 -0.114 1.254h0.228l-0.114 0.57 -0.114 -0.228h-0.342c-0.2 -1.245 -0.2 -1.245 0.135 -1.725L54.846 37.172l0.221 -0.15c0.312 -0.104 0.593 -0.093 0.919 -0.078" fill="#7D5D0A"/><path d="M57.925 36.83v0.57a75.827 75.827 0 0 1 -0.492 0.171l-0.277 0.096C56.899 37.742 56.899 37.742 56.556 37.742v-0.798c0.493 -0.254 0.831 -0.219 1.368 -0.114" fill="#EAB900"/><path d="M57.013 45.838h0.228l-0.114 3.877h0.342v-3.193h0.114q0.041 0.672 0.074 1.345c0.012 0.228 0.026 0.455 0.04 0.682l0.02 0.433 0.022 0.4C57.697 49.715 57.697 49.715 57.482 49.932 57.241 50.057 57.241 50.057 57.013 50.057z" fill="#803E14"/><path d="M59.293 44.812h0.228a35.462 35.462 0 0 1 0.121 0.485l0.068 0.273c0.04 0.281 0.012 0.458 -0.075 0.725l0.57 -0.114v1.026c-0.228 -0.114 -0.228 -0.114 -0.342 -0.456 -0.368 -0.245 -0.488 -0.251 -0.912 -0.228l0.114 -0.57h0.228z" fill="#A21520"/><path d="M58.609 36.716h0.114v0.684l0.342 0.114h-0.342l-0.114 0.912 -0.456 0.114v0.342l-0.456 -0.114v-0.342h0.342l-0.114 -0.912 -0.342 -0.114h0.57v0.57h0.342l-0.004 -0.245 -0.003 -0.318 -0.004 -0.317C58.495 36.83 58.495 36.83 58.609 36.716" fill="#826009"/><path d="M56.1 41.391h0.684v0.456h0.456l-0.114 0.684h0.228l-0.114 1.71h0.228v0.456h-0.228l-0.114 -1.026h-0.456v-0.342h0.456l0.114 -0.684h-0.228v-0.57h-0.228v0.456h-0.228c-0.014 -0.77 -0.014 -0.77 0.114 -1.026h-0.57z" fill="#714D16"/><path d="M59.065 44.014c0.468 0.41 0.64 0.75 0.684 1.368l-0.228 -0.228v-0.342l-0.342 0.114v-0.228c-0.469 -0.234 -0.748 -0.224 -1.254 -0.114h-0.342c0.301 -0.667 0.793 -0.695 1.482 -0.57" fill="#97072A"/><path d="M58.267 40.935h0.114v3.079l-0.684 0.342c-0.112 0.41 -0.112 0.41 -0.114 0.798l-0.228 -0.228 -0.342 0.456v-0.342l-0.342 -0.228 0.798 -0.114v-0.456h-0.228v-1.14h0.114v1.026l0.264 -0.114c0.306 -0.114 0.306 -0.114 0.648 -0.114z" fill="#830D21"/><path d="M51.995 42.075h0.684v1.368h-0.684z" fill="#BBB9B8"/><path d="M60.661 37.172c1.052 0.088 1.052 0.088 1.368 0.456v0.57l-1.368 -0.342z" fill="#EAB702"/><path d="m56.1 37.172 -0.114 0.684 -0.212 0.046 -0.279 0.061 -0.277 0.06c-0.274 0.061 -0.274 0.061 -0.6 0.175 0.014 -0.321 0.014 -0.321 0.114 -0.684 0.457 -0.319 0.818 -0.381 1.368 -0.342" fill="#EAB701"/><path d="M57.925 40.365q0.378 -0.005 0.755 -0.007l0.425 -0.004c0.379 0.01 0.728 0.053 1.1 0.125l-0.114 0.228c-0.757 0.143 -1.513 0.126 -2.281 0.114z" fill="#A10523"/><path d="M63.512 41.961h1.368v1.596l-0.342 -0.114v-1.368h-0.912v1.254l0.456 0.114h-0.57z" fill="#9D8F6E"/><path d="m64.424 46.636 0.456 0.114v1.71h-0.456z" fill="#9D9585"/><path d="M63.512 41.391h1.482l-0.114 0.57h-1.368z" fill="#755B09"/><path d="M57.925 46.864h0.342c0.003 0.356 0.005 0.713 0.007 1.069l0.003 0.307 0.001 0.294 0.002 0.271C58.267 49.031 58.267 49.031 58.153 49.259h-0.228z" fill="#916D05"/><path d="M57.355 38.883h0.228l0.114 0.342c0.23 0.084 0.23 0.084 0.456 0.114v0.228l0.2 -0.071c0.318 -0.053 0.437 0.033 0.713 0.185q-0.41 0.033 -0.819 0.064l-0.233 0.019c-0.432 0.032 -0.808 0.026 -1.228 -0.084v-0.228h-0.228l0.114 -0.342 0.684 0.228z" fill="#7A4D12"/><path d="m51.083 43.9 0.57 0.114 0.114 1.14h-0.456c-0.351 -0.603 -0.351 -0.603 -0.306 -1.012z" fill="#AD1421"/><path d="m53.022 40.821 0.456 0.114v0.57l-0.228 0.114v-0.228h-1.482v-0.342h1.254z" fill="#9C7B01"/><path d="M60.433 41.163c0.533 0.168 0.533 0.168 0.72 0.47L61.231 41.847h-0.798l-0.114 0.342 -0.57 -0.228v-0.228l0.684 -0.114z" fill="#885165"/><path d="M58.951 46.18c0.228 0.228 0.228 0.228 0.228 0.57l-0.684 0.342v1.71h-0.228v-1.938h0.342v-0.228l-0.456 -0.114 0.335 -0.107c0.331 -0.086 0.331 -0.086 0.463 -0.235" fill="#751E21"/><path d="M59.863 37.742h0.228l0.114 0.342 0.228 0.114v0.57h0.342v0.342h-0.456v-0.342h-0.342v0.228h-0.456v-0.342h0.456z" fill="#854010"/><path d="m54.846 39.453 0.2 0.025c0.507 0.06 0.999 0.102 1.51 0.089v0.456l-0.456 -0.114 -0.114 0.57 -0.228 -0.456h-0.228v-0.228l-0.214 -0.043C55.074 39.681 55.074 39.681 54.846 39.453" fill="#7D550B"/><path d="m56.556 38.084 0.093 0.221c0.122 0.273 0.122 0.273 0.477 0.349h-0.342v0.342l0.57 -0.114v0.456h-0.798q-0.286 0.054 -0.57 0.114v-0.228l0.342 -0.114c0.149 -0.362 0.228 -0.634 0.228 -1.026" fill="#95161E"/><path d="M63.284 49.031h1.824v0.342h-1.824z" fill="#9B7A01"/><path d="m57.469 49.943 0.342 0.342c0.151 0.079 0.303 0.155 0.456 0.228q-0.378 0.009 -0.755 0.014l-0.425 0.008c-0.409 -0.022 -0.72 -0.102 -1.1 -0.25v-0.114c0.107 -0.01 0.107 -0.01 0.216 -0.021l0.282 -0.029 0.281 -0.028c0.264 -0.038 0.437 -0.15 0.703 -0.15" fill="#ADA48B"/><path d="m57.269 40.358 0.372 0.003L57.925 40.365l-0.114 0.456q-0.364 -0.02 -0.727 -0.043c-0.135 -0.008 -0.27 -0.016 -0.409 -0.024C56.328 40.707 56.328 40.707 56.1 40.479c0.395 -0.122 0.757 -0.126 1.169 -0.121" fill="#61111B"/><path d="M61.688 37.172c0.313 0.119 0.454 0.225 0.663 0.492 0.16 0.362 0.148 0.507 0.021 0.877l-0.228 0.342 -0.342 -0.114h0.228l-0.057 -0.249c-0.057 -0.321 -0.057 -0.321 -0.05 -0.613 -0.008 -0.306 -0.081 -0.474 -0.235 -0.734" fill="#785B0B"/><path d="M60.091 47.891c0.099 0.342 0.126 0.643 0.121 0.998l-0.003 0.276L60.205 49.373h-0.228v-0.228l-0.57 -0.114c0.036 -0.214 0.036 -0.214 0.114 -0.456l0.342 -0.228c0.136 -0.234 0.136 -0.234 0.228 -0.456" fill="#B31022"/><path d="M52.452 44.242h0.684v1.14l-0.456 0.228v-1.254z" fill="#999392"/><path d="M62.372 38.883v0.228l-0.342 0.114 -0.285 0.285C61.46 39.795 61.46 39.795 61.117 39.909l-0.114 -0.228 0.456 -0.114v-0.228l-0.342 -0.114v-0.228q0.249 -0.062 0.499 -0.121l0.281 -0.068C62.144 38.769 62.144 38.769 62.372 38.883" fill="#885C09"/><path d="M51.767 49.031h1.71v0.342h-1.71z" fill="#9C7B01"/><path d="m65.108 40.137 -0.114 0.456v-0.342h-1.596l-0.114 0.342 0.114 -0.57c0.656 -0.32 1.074 -0.149 1.71 0.114" fill="#976F0C"/><path d="m52.509 50.15 0.271 -0.004c0.233 -0.001 0.466 0.012 0.698 0.026l0.228 0.228q-0.374 0.029 -0.748 0.057l-0.421 0.032c-0.41 0.024 -0.815 0.029 -1.225 0.025v-0.228c0.374 -0.187 0.786 -0.135 1.197 -0.135" fill="#3A5161"/><path d="m60.433 47.891 0.228 0.114 0.114 0.342 0.342 0.228v0.456l-0.456 0.114v0.228h-0.228z" fill="#B21121"/><path d="m56.328 37.628 0.342 0.114c0.031 0.615 0.041 0.971 -0.342 1.482l-0.456 -0.114 0.114 -0.342h0.228z" fill="#824C0D"/><path d="M56.556 39.681h0.798v0.456l0.456 0.114c-0.223 0.044 -0.446 0.087 -0.67 0.128l-0.377 0.072L56.442 40.479l-0.228 -0.228h0.57v-0.456z" fill="#735B08"/><path d="m58.395 39.674 0.443 0.003L59.179 39.681l0.228 0.456 -0.684 -0.114v-0.228h-0.798l-0.114 0.342h-0.456v-0.342c0.342 -0.171 0.66 -0.125 1.04 -0.121" fill="#8C7110"/><path d="m64.424 44.356 0.342 0.114v1.368l-0.684 -0.114 0.342 -0.114z" fill="#9B9594"/><path d="M60.205 42.987h0.456l0.036 0.221L60.775 43.444l0.342 0.114 -0.007 0.271c-0.014 0.297 -0.014 0.297 0.121 0.527l-0.57 -0.114v-0.684l-0.456 -0.228z" fill="#CD57A5"/><path d="m64.196 43.672 0.114 0.456 0.342 -0.114v-0.342l0.57 0.114 -0.114 0.684 -0.912 -0.114a10.034 10.034 0 0 1 -0.114 -0.57z" fill="#A91B23"/><path d="M57.925 39.795h0.798v0.228l0.684 0.114v0.114h-1.596z" fill="#804D0C"/><path d="M58.495 49.943v0.228l0.798 -0.114v0.228q-0.363 0.033 -0.727 0.064l-0.409 0.036C57.811 50.399 57.811 50.399 57.583 50.285v-0.228c0.33 -0.094 0.557 -0.114 0.912 -0.114" fill="#395D4B"/><path d="M52.68 39.681v0.342h0.57l0.114 0.456h-0.342v-0.228l-0.456 0.114 -0.114 -0.342 -0.684 0.114c0.273 -0.273 0.518 -0.456 0.912 -0.456" fill="#952F17"/><path d="M51.995 46.75v1.71l-0.228 0.114 -0.114 -1.71c0.228 -0.114 0.228 -0.114 0.342 -0.114" fill="#B59534"/><path d="M62.828 43.444h1.254l-0.228 0.114v0.57h-0.684l-0.043 -0.214c-0.057 -0.264 -0.057 -0.264 -0.299 -0.47" fill="#AE1923"/><path d="M61.117 41.847h0.114l0.114 1.482h-0.456q0.024 -0.339 0.05 -0.677c0.009 -0.126 0.018 -0.251 0.028 -0.381C61.003 41.961 61.003 41.961 61.117 41.847" fill="#B1ACAC"/><path d="M51.881 41.391h1.368l-0.114 0.456h-1.254z" fill="#6A5209"/><path d="M58.545 44.448C58.837 44.47 58.837 44.47 59.065 44.698l-0.114 0.342 -0.228 -0.228 -0.228 0.57h-0.228a20.182 20.182 0 0 1 -0.114 -0.798c0.114 -0.114 0.114 -0.114 0.392 -0.135" fill="#0342A5"/><path d="M58.837 44.014c0.37 0.119 0.525 0.298 0.72 0.62C59.749 45.04 59.749 45.04 59.635 45.382l-0.114 -0.57 -0.342 0.114v-0.228l-0.342 -0.114 -0.114 -0.342z" fill="#932A40"/><path d="M57.583 37.4h0.57c0.147 0.961 0.147 0.961 0 1.482l-0.456 -0.114v-0.342h0.342l-0.114 -0.912z" fill="#83530C"/><path d="m58.039 49.259 0.342 0.228 -0.114 0.57 -0.798 0.114c0.062 -0.433 0.251 -0.624 0.57 -0.912" fill="#A1947C"/><path d="M59.293 44.812h0.228c0.009 0.2 0.016 0.399 0.021 0.599l0.012 0.337c-0.038 0.362 -0.135 0.509 -0.375 0.775l-0.228 -0.114 0.114 -0.456h0.228z" fill="#A50428"/><path d="M61.003 43.786c0.178 0.114 0.178 0.114 0.342 0.342 -0.004 0.315 -0.058 0.6 -0.114 0.912l-0.456 -0.114 -0.114 -0.684h0.456z" fill="#8F5575"/><path d="m52.452 40.023 0.228 0.57h-1.026v-0.456c0.284 -0.078 0.499 -0.114 0.798 -0.114" fill="#813115"/><path d="m61.117 39.795 -0.228 0.912 -0.456 -0.114 0.228 -0.684 -0.456 -0.114c0.375 -0.125 0.537 -0.091 0.912 0" fill="#7A540B"/><path d="M58.267 35.12h0.228v0.228h0.228v0.228h-0.228l0.114 0.684h-0.342c-0.237 -0.503 -0.237 -0.503 -0.192 -0.827C58.153 35.234 58.153 35.234 58.267 35.12" fill="#9F7D05"/><path d="M56.328 41.733v0.912h-0.342v-0.57l-0.456 0.114v-0.342c0.542 -0.114 0.542 -0.114 0.798 -0.114" fill="#7A3612"/><path d="M60.433 41.847h0.456l-0.228 0.798h-0.57c0.214 -0.542 0.214 -0.542 0.342 -0.798" fill="#D358AA"/><path d="M59.179 47.662h0.912l-0.228 0.342h-0.342l-0.114 0.57h-0.228z" fill="#B01E1D"/><path d="M61.916 37.172h0.342v0.228h0.228c0.253 0.575 0.211 0.896 0 1.482h-0.228l0.086 -0.406c0.076 -0.565 -0.111 -0.844 -0.428 -1.304" fill="#A48D43"/><path d="m58.153 35.804 0.114 0.456 0.228 -0.114v-0.228h0.228v0.57c-0.271 0.071 -0.271 0.071 -0.57 0.114l-0.228 -0.228c0.061 -0.403 0.061 -0.403 0.228 -0.57" fill="#605C32"/><path d="M60.547 47.662h0.912v0.912l-0.342 -0.114 -0.114 -0.342a10.262 10.262 0 0 0 -0.456 -0.456" fill="#B11A1F"/><path d="M59.635 45.838c0.77 -0.014 0.77 -0.014 1.026 0.114v0.228h-0.228v0.342h-0.228v-0.342l-0.57 0.114z" fill="#A45E09"/><path d="M58.723 44.698h0.342c0.228 0.228 0.228 0.228 0.25 0.475l-0.008 0.281 -0.006 0.282L59.293 45.952h-0.114v-0.684h-0.342l-0.114 0.342c-0.112 -0.348 -0.112 -0.564 0 -0.912" fill="#5B4833"/><path d="m58.609 37.97 0.036 0.221L58.723 38.426l0.342 0.114 -0.114 0.456 -0.57 0.114 -0.114 -0.228h0.228z" fill="#81440E"/><path d="m60.091 36.83 0.342 0.114c0.19 0.412 0.075 0.822 0 1.254l-0.342 -0.114 0.1 -0.679c0.03 -0.256 0.03 -0.256 -0.1 -0.575" fill="#70581F"/><path d="M60.433 46.18h0.912l-0.271 0.257c-0.25 0.262 -0.394 0.442 -0.527 0.77 -0.121 -0.364 -0.122 -0.645 -0.114 -1.026" fill="#B1181F"/><path d="m60.889 41.847 0.228 0.114 -0.114 1.482h-0.228c-0.128 -0.428 -0.128 -0.428 0 -0.684h-0.57l0.214 -0.071c0.339 -0.219 0.371 -0.461 0.47 -0.841" fill="#9D5F84"/><path d="M63.398 40.251h1.482v0.228l-1.482 0.114z" fill="#7E2519"/><path d="M56.1 41.391h0.684v0.456h0.456l-0.114 0.342v-0.228h-0.342v0.57h-0.228c-0.014 -0.77 -0.014 -0.77 0.114 -1.026h-0.57z" fill="#752617"/><path d="M55.986 36.944h0.342l0.114 1.254h-0.228c-0.306 -0.458 -0.246 -0.712 -0.228 -1.254" fill="#866C3B"/><path d="m59.293 46.636 0.228 0.342a10.034 10.034 0 0 0 0.57 0.342c-0.309 0.154 -0.571 0.121 -0.912 0.114 0 -0.456 0 -0.456 0.114 -0.798" fill="#B1171F"/><path d="M60.205 43.786v0.342h-0.342v0.228h0.57c-0.428 0.228 -0.428 0.228 -0.684 0.228v-0.228h-0.228c0.036 -0.221 0.036 -0.221 0.114 -0.456 0.342 -0.114 0.342 -0.114 0.57 -0.114" fill="#81566A"/><path d="m53.82 43.558 0.57 0.114v0.684l-0.57 -0.228z" fill="#B40026"/><path d="m64.88 40.251 0.114 0.342c-0.114 0.171 -0.114 0.171 -0.342 0.342 -0.31 0.031 -0.599 0.015 -0.912 0 0.342 -0.228 0.342 -0.228 0.684 -0.228l0.114 -0.342 0.342 0.114z" fill="#623715"/><path d="M60.205 47.32c0.342 0.114 0.342 0.114 0.463 0.335L60.775 47.891l0.228 0.228 -0.342 0.114 -0.114 -0.228c-0.231 -0.074 -0.231 -0.074 -0.456 -0.114z" fill="#646820"/><path d="M53.364 43.558h0.456l0.036 0.271c0.053 0.337 0.053 0.337 0.42 0.527 -0.385 -0.062 -0.579 -0.12 -0.912 -0.342z" fill="#A93117"/><path d="M61.231 46.636c0.228 0.342 0.228 0.342 0.228 0.798h-0.912c0.228 -0.342 0.228 -0.342 0.57 -0.456z" fill="#B21320"/><path d="M56.1 41.505h0.57l-0.114 1.026h-0.228v-0.798h-0.228z" fill="#8A6605"/><path d="M59.977 38.312h0.342v0.456h-0.342v0.228h-0.456v-0.342h0.456z" fill="#855709"/><path d="m53.136 44.698 0.57 0.114v1.026h-0.114l-0.114 -0.798 -0.228 0.456 -0.228 -0.114z" fill="#8F2628"/><path d="m56.214 44.242 0.456 0.114v0.57h-0.456z" fill="#243C6B"/><path d="M62.372 43.672h0.342l0.228 0.57 -0.57 0.114z" fill="#AF0924"/><path d="M59.977 39.909h0.684l-0.114 0.57c-0.342 -0.114 -0.342 -0.114 -0.57 -0.228z" fill="#8F7212"/><path d="M60.433 36.716q0.278 -0.005 0.556 -0.007l0.313 -0.004C61.574 36.716 61.574 36.716 61.802 36.83v0.228l0.342 0.114c-0.784 -0.1 -0.784 -0.1 -0.912 -0.228a26.91 26.91 0 0 0 -0.798 -0.114z" fill="#B39839"/><path d="m51.539 44.47 0.228 0.114v0.57h-0.456l-0.114 -0.456z" fill="#9E0C22"/><path d="M51.881 46.864h-0.228v0.684c-0.228 -0.15 -0.228 -0.15 -0.456 -0.342v-0.342c0.342 -0.114 0.342 -0.114 0.684 0" fill="#98251C"/><path d="M61.688 45.952c0.122 0.365 0.108 0.557 0.064 0.934l-0.035 0.311L61.688 47.434c-0.32 -0.48 -0.212 -0.696 -0.114 -1.254z" fill="#A36906"/><path d="m57.583 46.294 1.026 0.342v0.228c-0.385 -0.029 -0.385 -0.029 -0.798 -0.114z" fill="#A80226"/><path d="m57.355 40.365 -0.342 0.114v0.228c-0.328 0.014 -0.328 0.014 -0.684 0l-0.228 -0.228c0.419 -0.134 0.818 -0.122 1.254 -0.114" fill="#492115"/><path d="M56.556 39.681h0.798l-0.114 0.456h-0.456v-0.342z" fill="#515818"/><path d="m59.407 50.057 0.912 0.114c-0.228 0.228 -0.228 0.228 -0.45 0.25L59.179 50.399z" fill="#B1AEA9"/><path d="m60.091 43.672 0.456 0.114 -0.114 0.57h-0.57v-0.228h0.342z" fill="#C2589E"/><path d="m51.767 43.558 0.228 0.456 -0.228 0.342 -0.456 -0.57z" fill="#A64912"/><path d="m59.635 41.619 0.456 0.114h-0.342l0.171 0.157C60.091 42.075 60.091 42.075 60.091 42.303l-0.57 -0.114c0 -0.342 0 -0.342 0.114 -0.57" fill="#B0A8A9"/><path d="m59.293 41.619 0.228 0.114c-0.114 0.342 -0.114 0.342 -0.342 0.57l-0.342 -0.114c0.036 -0.221 0.036 -0.221 0.114 -0.456z" fill="#835769"/><path d="M60.775 39.225h0.228v0.342l0.228 0.114h-1.026v-0.228h0.57z" fill="#844422"/><path d="m58.153 37.058 0.114 0.228h0.228v0.684h-0.342z" fill="#968A68"/><path d="M55.986 36.944v0.228l-1.026 0.228v-0.342c0.364 -0.121 0.645 -0.122 1.026 -0.114" fill="#866A0A"/><path d="m61.345 46.18 0.228 0.114 -0.114 0.684h-0.342c-0.078 -0.207 -0.078 -0.207 -0.114 -0.456 0.164 -0.2 0.164 -0.2 0.342 -0.342" fill="#A94511"/><path d="M58.153 44.356c0.264 0.021 0.264 0.021 0.456 0.114l-0.342 0.114c-0.138 0.228 -0.138 0.228 -0.228 0.456v-0.228h-0.228v0.228l-0.228 -0.114c0.257 -0.292 0.257 -0.292 0.57 -0.57" fill="#133E88"/><path d="m60.205 40.479 0.342 0.114v0.228c-0.485 0.132 -0.876 0.087 -1.368 0v-0.114l0.701 -0.078c0.212 -0.015 0.212 -0.015 0.325 -0.15" fill="#783D11"/><path d="M57.925 40.365h0.456v0.456h-0.57z" fill="#880721"/><path d="M58.039 36.602c0.235 0.05 0.235 0.05 0.456 0.114h-0.228l-0.114 0.684h-0.228c-0.005 -0.228 -0.005 -0.456 0 -0.684z" fill="#80660A"/><path d="m58.837 49.601 0.456 0.114v0.228l0.228 0.114c-0.284 0.142 -0.389 0.089 -0.684 0z" fill="#998D8D"/><path d="m61.231 47.434 -0.114 0.342 -0.57 -0.114v-0.228c0.284 -0.142 0.389 -0.089 0.684 0" fill="#A25F0A"/><path d="M64.88 46.75h0.342l0.228 0.57 -0.456 0.228 0.007 -0.271c0.014 -0.297 0.014 -0.297 -0.121 -0.527" fill="#A33B18"/><path d="M57.355 45.952h0.342l0.228 0.456 -0.57 0.114 -0.114 -0.342z" fill="#871527"/><path d="M58.267 45.496h0.228c0.128 0.542 0.128 0.542 0 0.798h-0.228c-0.106 -0.343 -0.119 -0.441 0 -0.798" fill="#776312"/><path d="m57.697 45.61 0.342 0.114 0.114 0.57 -0.456 -0.114z" fill="#0241A6"/><path d="M59.179 41.961c0.341 0.125 0.439 0.191 0.599 0.527L59.863 42.759h-0.228v-0.228l-0.456 -0.228z" fill="#B85796"/><path d="M57.811 44.812h0.228v0.228h0.228v0.228h-0.228v0.228c-0.228 -0.114 -0.228 -0.114 -0.342 -0.456z" fill="#786515"/><path d="m61.117 42.759 0.228 0.228c-0.043 0.242 -0.043 0.242 -0.114 0.456l-0.342 -0.114c0.1 -0.442 0.1 -0.442 0.228 -0.57" fill="#B8B5B5"/><path d="M60.547 41.277c0.278 0.093 0.278 0.093 0.57 0.228l0.114 0.342c-0.247 -0.058 -0.456 -0.114 -0.684 -0.228z" fill="#65542F"/><path d="m52.68 39.681 -0.114 0.57 -0.114 -0.228 -0.684 0.114c0.273 -0.273 0.518 -0.456 0.912 -0.456" fill="#996D09"/><path d="M59.407 39.681h0.684l-0.228 0.114v0.342l-0.456 -0.114z" fill="#4D5619"/><path d="m61.688 39.453 0.228 0.114a42.873 42.873 0 0 1 -0.328 0.342l-0.184 0.192C61.231 40.251 61.231 40.251 61.003 40.251c0.159 -0.384 0.34 -0.569 0.684 -0.798" fill="#DAAB02"/></svg>