<svg xmlns="http://www.w3.org/2000/svg" version="1.1" width="100" height="100.779" viewBox="0 0 100 100.779" id="modified-svg-1771353752776"><path d="M49.837 0.846c0.453 0.002 0.906 0.002 1.359 0.002 0.442 0 0.885 0.001 1.327 0.003q0.312 0.001 0.625 0.001c1.181 0.002 2.304 0.061 3.471 0.26q0.253 0.032 0.507 0.059c1.521 0.161 2.99 0.478 4.478 0.831l0.354 0.084C62.67 2.258 63.371 2.453 64.071 2.67q0.25 0.073 0.501 0.146c0.645 0.193 1.282 0.409 1.919 0.625l0.252 0.085 0.226 0.077c0.219 0.069 0.438 0.127 0.662 0.18v0.222l0.268 0.029c0.516 0.107 0.968 0.302 1.449 0.514l0.305 0.132c0.793 0.347 1.577 0.712 2.358 1.084l0.322 0.154C72.893 6.187 73.435 6.471 73.971 6.785q0.217 0.122 0.434 0.243c1.202 0.671 2.355 1.388 3.497 2.155a46.496 46.496 0 0 0 0.737 0.484l0.275 0.177 0.236 0.149L79.31 10.122v0.222l0.225 0.069c0.453 0.21 0.799 0.509 1.179 0.828l0.237 0.196a192.436 192.436 0 0 1 0.473 0.392 54.95 54.95 0 0 0 0.59 0.482l0.319 0.258 0.276 0.222c0.287 0.246 0.549 0.51 0.816 0.779a45.829 45.829 0 0 0 0.466 0.41c0.575 0.514 1.122 1.054 1.669 1.599l0.256 0.255C87.319 17.341 87.319 17.341 87.319 17.686h0.222c0.198 0.213 0.198 0.213 0.438 0.514l0.268 0.334a222.136 222.136 0 0 1 0.458 0.582c0.447 0.569 0.447 0.569 0.657 0.839 0.2 0.256 0.396 0.504 0.626 0.734v0.334h0.222c0.135 0.166 0.135 0.166 0.286 0.399l0.168 0.257 0.178 0.276 0.363 0.554 0.177 0.271c0.196 0.297 0.4 0.588 0.607 0.878 0.779 1.104 0.779 1.104 0.779 1.592h0.222c1.138 2.091 2.233 4.174 3.112 6.389a91.324 91.324 0 0 0 0.348 0.857l0.232 0.568 0.12 0.289c0.199 0.49 0.345 0.935 0.416 1.463a46.274 46.274 0 0 0 0.235 0.531c0.591 1.487 0.885 3.138 1.218 4.697l0.086 0.398c0.15 0.7 0.295 1.4 0.403 2.108a25.139 25.139 0 0 0 0.146 0.84c0.364 2.065 0.298 4.166 0.291 6.255 -0.002 0.555 -0.001 1.11 0.001 1.665 0.013 4.531 0.013 4.531 -0.378 6.755l-0.054 0.307c-0.125 0.7 -0.269 1.396 -0.419 2.092l-0.066 0.31c-0.389 1.828 -0.815 3.646 -1.485 5.394 -0.105 0.281 -0.204 0.565 -0.302 0.849 -0.552 1.583 -1.174 3.109 -1.901 4.619l-0.121 0.253c-0.448 0.93 -0.932 1.833 -1.452 2.725 -0.183 0.318 -0.356 0.639 -0.527 0.964 -0.355 0.657 -0.771 1.268 -1.19 1.885 -0.22 0.325 -0.427 0.657 -0.631 0.993 -0.586 0.929 -1.291 1.778 -1.974 2.635l-0.152 0.192c-0.517 0.648 -1.056 1.272 -1.614 1.885A44.16 44.16 0 0 0 86.707 83.871a106.007 106.007 0 0 1 -0.904 1.022l-0.241 0.269c-0.502 0.544 -1.039 1.049 -1.581 1.553l-0.203 0.19C82.734 87.875 82.734 87.875 82.425 87.875l-0.069 0.188c-0.212 0.355 -0.51 0.568 -0.835 0.813l-0.208 0.16c-0.222 0.17 -0.445 0.339 -0.668 0.508l-0.448 0.341C78.659 91.054 77.077 92.116 75.417 93.103l-0.2 0.119c-0.879 0.521 -1.78 0.999 -2.685 1.473l-0.331 0.174c-0.552 0.287 -1.102 0.555 -1.678 0.792a80.868 80.868 0 0 0 -0.415 0.183c-1.296 0.575 -2.607 1.084 -3.944 1.555l-0.276 0.098c-0.637 0.222 -1.28 0.422 -1.928 0.612l-0.395 0.118 -0.356 0.104 -0.353 0.104c-0.526 0.144 -1.061 0.251 -1.595 0.364A96.218 96.218 0 0 0 60.067 99.062l-0.779 0.173 -0.389 0.089a14.238 14.238 0 0 1 -2.385 0.318c-0.327 0.016 -0.327 0.016 -0.594 0.075 -1.156 0.229 -2.336 0.189 -3.509 0.19l-0.612 0.001q-0.639 0.001 -1.279 0.001c-0.542 0 -1.083 0.002 -1.625 0.003q-0.632 0.002 -1.263 0.001 -0.299 0 -0.598 0.001c-1.08 0.004 -2.125 -0.031 -3.194 -0.196 -0.396 -0.061 -0.79 -0.097 -1.189 -0.126 -0.311 -0.044 -0.608 -0.122 -0.912 -0.2 -0.45 -0.109 -0.906 -0.186 -1.362 -0.269 -1.012 -0.189 -2.009 -0.411 -3.003 -0.681l-0.262 -0.07c-1.834 -0.495 -3.67 -1.053 -5.411 -1.821a60.957 60.957 0 0 0 -0.521 -0.209L30.59 96.107l-0.305 -0.121C27.355 94.801 24.468 93.18 21.913 91.324l-0.558 -0.394c-0.727 -0.515 -1.437 -1.048 -2.141 -1.594a14.572 14.572 0 0 0 -0.568 -0.422L18.465 88.765v-0.222l-0.229 -0.063c-0.383 -0.187 -0.604 -0.419 -0.896 -0.725 -0.346 -0.354 -0.725 -0.669 -1.099 -0.992a156.618 156.618 0 0 1 -0.521 -0.459l-0.238 -0.209c-0.549 -0.503 -1.056 -1.047 -1.563 -1.591l-0.209 -0.224C13.246 83.781 12.786 83.279 12.347 82.759l-0.271 -0.32C11.902 82.202 11.902 82.202 11.902 81.98h-0.222a11.791 11.791 0 0 1 -0.508 -0.64l-0.149 -0.198q-0.154 -0.204 -0.306 -0.408a95.996 95.996 0 0 0 -0.418 -0.555 49.833 49.833 0 0 1 -2.227 -3.198l-0.184 -0.284 -0.17 -0.269 -0.155 -0.242C7.453 75.973 7.453 75.973 7.453 75.64h-0.222c-1.406 -2.546 -2.669 -5.089 -3.712 -7.807l-0.108 -0.282a21.802 21.802 0 0 1 -0.554 -1.676 8.231 8.231 0 0 0 -0.234 -0.663c-0.843 -2.216 -1.283 -4.654 -1.675 -6.987l-0.039 -0.226c-0.282 -1.674 -0.384 -3.31 -0.379 -5.006l-0.001 -0.646q-0.001 -0.672 0.001 -1.343c0.001 -0.569 0.001 -1.139 -0.001 -1.708q-0.001 -0.665 0 -1.33 0 -0.314 -0.001 -0.629C0.523 46.108 0.578 44.928 0.779 43.715l0.056 -0.349q0.051 -0.313 0.105 -0.625c0.045 -0.266 0.089 -0.533 0.13 -0.8a43.048 43.048 0 0 1 1.517 -6.418c0.108 -0.345 0.208 -0.693 0.305 -1.041h0.222l-0.111 -0.334c0.063 -0.217 0.063 -0.217 0.174 -0.473l0.127 -0.301L3.448 33.037q0.154 -0.389 0.306 -0.779c0.355 -0.892 0.742 -1.77 1.139 -2.644q0.109 -0.239 0.216 -0.48C5.759 27.675 6.537 26.295 7.341 24.917l0.13 -0.224c0.59 -1.009 1.266 -1.955 1.946 -2.905a51.279 51.279 0 0 0 0.544 -0.785c0.882 -1.258 1.876 -2.424 2.891 -3.575 0.161 -0.186 0.314 -0.377 0.468 -0.569L13.571 16.574h0.222l0.083 -0.192c0.163 -0.295 0.354 -0.496 0.591 -0.734l0.269 -0.269 0.281 -0.278c0.139 -0.14 0.139 -0.14 0.281 -0.283l0.269 -0.268 0.246 -0.246C16.018 14.127 16.018 14.127 16.24 14.127v-0.222c0.156 -0.157 0.156 -0.157 0.375 -0.341a32.147 32.147 0 0 0 1.05 -0.932C19.214 11.235 19.214 11.235 19.689 11.235l0.083 -0.202c0.165 -0.287 0.316 -0.395 0.591 -0.577 0.361 -0.242 0.718 -0.485 1.069 -0.741 1.177 -0.857 2.404 -1.605 3.665 -2.331a44.494 44.494 0 0 0 0.655 -0.386c1.837 -1.1 3.81 -1.957 5.789 -2.769 0.222 -0.092 0.443 -0.189 0.663 -0.287 0.432 -0.178 0.869 -0.325 1.314 -0.469a36.04 36.04 0 0 0 0.887 -0.306c1.229 -0.435 2.47 -0.776 3.736 -1.081l0.232 -0.056c3.846 -0.924 7.523 -1.21 11.465 -1.183" fill="#04122F"/><path d="M6.785 33.482h14.461v40.712H10.234c-1.045 -1.698 -1.045 -1.698 -1.46 -2.496l-0.142 -0.272C8.235 70.658 7.889 69.878 7.564 69.077l-0.132 -0.31c-1.249 -2.926 -2.231 -5.917 -2.827 -9.043 -0.076 -0.394 -0.157 -0.775 -0.269 -1.16 -1.364 -4.861 -1.069 -11.246 -0.049 -16.155 0.062 -0.3 0.119 -0.602 0.176 -0.903 0.751 -3.897 0.751 -3.897 1.325 -5.204 0.177 -0.43 0.298 -0.876 0.427 -1.321C6.38 34.472 6.587 33.978 6.785 33.482" fill="#FDC200"/><path d="M80.568 78.828h0.439l0.474 0.005q0.242 0.001 0.485 0.001c0.425 0.001 0.85 0.004 1.276 0.008 0.434 0.003 0.868 0.005 1.302 0.007q1.277 0.006 2.554 0.016c-0.416 0.579 -0.851 1.106 -1.358 1.606l-0.193 0.193a142.825 142.825 0 0 1 -0.401 0.398 167.408 167.408 0 0 0 -0.605 0.603C83.89 82.313 83.236 82.945 82.536 83.537a142.937 142.937 0 0 0 -0.401 0.353c-0.822 0.721 -1.655 1.416 -2.531 2.069a92.436 92.436 0 0 0 -0.549 0.414c-4.143 3.112 -8.944 6.009 -13.904 7.623 -0.309 0.103 -0.309 0.103 -0.614 0.271 -0.426 0.205 -0.85 0.322 -1.306 0.441q-0.271 0.073 -0.543 0.146l-0.266 0.072c-0.306 0.085 -0.607 0.184 -0.909 0.283 -9.131 2.827 -19.592 2.263 -28.365 -1.55q-0.323 -0.133 -0.647 -0.264a47.998 47.998 0 0 1 -8.465 -4.596c-0.226 -0.15 -0.226 -0.15 -0.467 -0.246 -0.269 -0.125 -0.451 -0.239 -0.656 -0.456 -0.126 -0.464 -0.104 -0.915 -0.087 -1.393l0.004 -0.409c0.005 -0.431 0.016 -0.861 0.027 -1.292q0.007 -0.438 0.012 -0.877c0.01 -0.716 0.025 -1.432 0.043 -2.148 0.442 0.169 0.784 0.368 1.168 0.646 0.93 0.66 1.904 1.249 2.877 1.844q0.414 0.253 0.826 0.509C29.422 85.99 31.083 86.926 32.814 87.764l0.204 0.1c2.461 1.198 5.035 2.156 7.721 2.701 0.417 0.092 0.417 0.092 0.735 0.2 4.308 1.404 9.39 1.119 13.809 0.448 0.113 -0.017 0.227 -0.033 0.344 -0.05 8.106 -1.216 16.182 -5.32 22.354 -10.679 0.426 -0.368 0.863 -0.722 1.302 -1.075 0.245 -0.19 0.245 -0.19 0.388 -0.386 0.292 -0.234 0.527 -0.196 0.897 -0.194" fill="#C40B1E"/><path d="M21.246 14.016v19.466H6.897c0.125 -0.751 0.125 -0.751 0.31 -1.157l0.122 -0.27 0.132 -0.284 0.137 -0.299c1.76 -3.818 3.903 -7.35 6.591 -10.587a39.933 39.933 0 0 0 0.44 -0.543 17.686 17.686 0 0 1 1.488 -1.641c0.224 -0.224 0.433 -0.455 0.64 -0.695 0.552 -0.64 1.148 -1.213 1.788 -1.764 0.252 -0.221 0.498 -0.447 0.743 -0.676C20.957 14.016 20.957 14.016 21.246 14.016" fill="#C50B1E"/><path d="M48.449 4.093c0.364 0.002 0.728 0.002 1.092 0.002C60.102 4.113 71.055 7.107 79.31 13.904l0.185 0.152c1.227 1.013 2.393 2.084 3.521 3.206l0.222 0.22c0.493 0.495 0.958 1.008 1.412 1.539l0.184 0.213c0.967 1.13 1.835 2.306 2.656 3.545a46.162 46.162 0 0 0 0.454 0.668c1.124 1.634 2.082 3.372 2.946 5.156a40.934 40.934 0 0 0 0.312 0.623C92.229 31.241 92.229 31.241 92.325 32.147h0.222l0.076 0.222q0.174 0.504 0.348 1.008l0.12 0.35c0.243 0.706 0.243 0.706 0.528 1.396 0.168 0.4 0.276 0.801 0.374 1.222q0.056 0.235 0.113 0.469l0.055 0.23c0.099 0.401 0.215 0.797 0.33 1.193C94.549 38.487 94.549 38.487 94.549 38.932h0.222c0.15 0.479 0.222 0.825 0.222 1.335h-2.113v-0.667h-0.222l-0.056 -0.209c-0.735 -2.748 -1.604 -5.466 -2.808 -8.048a17.241 17.241 0 0 1 -0.276 -0.643c-2.173 -5.346 -6.141 -10.879 -10.696 -14.452 -0.316 -0.249 -0.619 -0.51 -0.924 -0.772 -0.717 -0.597 -1.474 -1.123 -2.25 -1.639a77.642 77.642 0 0 1 -0.457 -0.306c-4.237 -2.86 -9.1 -4.807 -14.083 -5.904 -0.284 -0.067 -0.564 -0.146 -0.845 -0.227 -3.759 -1.037 -7.801 -1.09 -11.669 -1.087l-0.435 0c-1.634 0.003 -3.259 0.036 -4.89 0.139V4.338c1.73 -0.172 3.44 -0.255 5.179 -0.245" fill="#CDBA93"/><path d="M13.459 46.83h0.222l0.222 1.001 0.396 -0.028c0.508 0.001 0.983 0.093 1.474 0.216l0.426 0.106c0.424 0.172 0.588 0.316 0.818 0.708 0.037 0.386 -0.048 0.764 -0.222 1.112h-0.334l-0.076 0.195c-0.182 0.312 -0.421 0.472 -0.702 0.695l-0.111 0.334 1.224 0.111v2.002h0.89v-1.446h-0.222v-0.445h0.222l-0.222 -0.334v-0.334c0.613 -0.19 0.949 -0.274 1.557 0 -0.056 0.241 -0.111 0.445 -0.222 0.667h0.222l-0.222 2.113 0.556 0.111c0.146 0.229 0.146 0.229 0.222 0.445 -0.202 0.334 -0.202 0.334 -0.445 0.667h-0.334v-0.667l-1.001 -0.111c-0.045 0.469 -0.045 0.469 0.111 0.89 0.363 0.219 0.726 0.37 1.123 0.52L19.355 55.506c0.155 0.465 -0.02 0.682 -0.222 1.112l-0.222 -0.111c-0.07 -0.285 -0.07 -0.285 -0.111 -0.556 0.072 1.006 0.072 1.006 0.222 2.002h0.222v0.89l-2.002 -0.111v-0.779h0.222v-0.445h0.222c-0.009 -0.345 -0.022 -0.691 -0.035 -1.036l-0.008 -0.297 -0.012 -0.286 -0.009 -0.263c-0.059 -0.284 -0.174 -0.371 -0.382 -0.566 -0.021 -0.299 -0.021 -0.299 0 -0.556l0.445 -0.222v-0.334l-0.89 0.111 0.005 0.286q0.008 0.528 0.013 1.056 0.002 0.228 0.007 0.456c0.004 0.219 0.006 0.438 0.007 0.658l0.005 0.399c-0.06 0.589 -0.27 0.938 -0.685 1.352 -0.363 0.249 -0.588 0.323 -1.022 0.355v0.222c-1.532 0.245 -2.862 0.182 -4.245 -0.577C10.679 58.065 10.679 58.065 10.628 57.741l0.007 -0.39 0.004 -0.423 0.011 -0.442q0.003 -0.223 0.006 -0.446 0.008 -0.545 0.022 -1.091h-0.334v-0.89H8.343v1.112l1.001 -0.334v-0.556l0.445 0.222c0.021 0.32 0.021 0.32 0 0.667l-0.334 0.222a7.786 7.786 0 0 0 -0.028 0.918l0.002 0.253c0.007 0.473 0.045 0.922 0.137 1.387h0.222v0.779l-2.002 0.111v-0.89c0.321 -0.16 0.603 -0.122 0.959 -0.118l0.401 0.003L9.455 57.842v-0.222H8.12v-1.112l-0.445 -0.222v-0.779l0.216 -0.076c0.26 -0.13 0.26 -0.13 0.313 -0.438L8.231 54.727l-0.209 -0.028C7.786 54.616 7.786 54.616 7.647 54.415 7.564 54.171 7.564 54.171 7.564 53.726c0.334 -0.222 0.334 -0.222 0.667 -0.222l-0.111 -2.781 0.556 -0.111v-0.222h0.222v0.222l0.556 0.111c0 0.445 0 0.445 -0.111 0.667h0.222l-0.222 1.891h0.779l0.222 0.111v-2.113l1.112 -0.111v-0.445l-0.195 -0.083c-0.284 -0.158 -0.467 -0.356 -0.695 -0.584l-0.334 -0.111c-0.273 -0.464 -0.212 -0.82 -0.111 -1.335h0.222l0.111 -0.334c0.749 -0.318 2.002 -0.704 2.781 -0.445 0.092 -0.322 0.111 -0.544 0.111 -0.89z" fill="#91360E"/><path d="M10.234 74.194h11.012v12.458c-1.696 -0.848 -3.127 -2.563 -4.456 -3.886 -0.077 -0.076 -0.154 -0.152 -0.232 -0.231 -0.499 -0.501 -0.969 -1.02 -1.429 -1.556q-0.16 -0.183 -0.321 -0.365c-1.491 -1.707 -2.789 -3.549 -4.024 -5.447l-0.165 -0.254C10.234 74.318 10.234 74.318 10.234 74.194" fill="#C40B1E"/><path d="M30.478 25.918c5.64 0 5.64 0 6.723 1.022 0.523 0.714 0.47 1.461 0.396 2.315 -0.187 0.657 -0.503 1.007 -1.091 1.342 -0.154 0.075 -0.309 0.147 -0.466 0.215l0.199 0.082c0.657 0.279 1.173 0.509 1.56 1.135 0.288 0.77 0.255 1.7 -0.056 2.454 -0.531 1.01 -1.44 1.432 -2.482 1.78h-4.783z" fill="#F4F5F6"/><path d="M48.053 25.918c4.899 0 4.899 0 6.09 0.8 0.586 0.612 0.827 1.242 0.862 2.086 -0.031 0.769 -0.186 1.439 -0.713 2.021 -0.352 0.318 -0.692 0.567 -1.123 0.767 0.058 0.522 0.296 0.875 0.591 1.293q0.151 0.22 0.301 0.44l0.162 0.238c0.308 0.459 0.604 0.926 0.9 1.394l0.177 0.277 0.164 0.26 0.146 0.231C55.729 35.929 55.729 35.929 55.84 36.263c-0.302 0.027 -0.601 0.047 -0.904 0.063l-0.256 0.025c-0.272 0.011 -0.472 -0.002 -0.731 -0.088 -0.303 -0.288 -0.476 -0.633 -0.667 -1.001l-0.191 -0.362 -0.205 -0.389q-0.161 -0.301 -0.323 -0.602a15.573 15.573 0 0 1 -0.211 -0.414l-0.103 -0.208 -0.089 -0.185c-0.186 -0.304 -0.429 -0.57 -0.658 -0.844l-1.669 -0.111v4.116h-1.78z" fill="#FAFAFA"/><path d="M76.307 44.939c0.838 0.71 1.184 1.483 1.335 2.558 0.072 1.409 0.01 2.868 -0.957 3.988 -0.867 0.802 -1.874 0.884 -3.006 0.848 -0.749 -0.058 -1.273 -0.366 -1.777 -0.915 -0.144 -0.189 -0.263 -0.377 -0.378 -0.584l-0.195 -0.334c-0.47 -1.127 -0.47 -3.069 -0.04 -4.215 0.448 -0.849 1.017 -1.459 1.917 -1.819 1.13 -0.219 2.102 -0.133 3.101 0.473" fill="#061431"/><path d="M40.934 43.048c0.302 -0.027 0.601 -0.047 0.904 -0.063l0.256 -0.025c0.273 -0.011 0.472 0 0.731 0.088 0.295 0.293 0.472 0.637 0.667 1.001q0.188 0.311 0.378 0.621 0.19 0.322 0.38 0.644l0.197 0.331 0.188 0.318 0.169 0.286C44.939 46.496 44.939 46.496 45.05 46.83h0.222l0.091 -0.243c0.13 -0.31 0.279 -0.587 0.45 -0.875l0.188 -0.319 0.196 -0.329 0.192 -0.326a47.275 47.275 0 0 1 0.378 -0.627c0.108 -0.176 0.212 -0.353 0.312 -0.534 0.166 -0.277 0.307 -0.498 0.628 -0.589 0.243 -0.017 0.472 -0.009 0.715 0.011l0.25 0.011c0.202 0.009 0.404 0.023 0.605 0.038 -0.165 0.47 -0.408 0.858 -0.688 1.265q-0.148 0.219 -0.296 0.439 -0.284 0.421 -0.568 0.84c-0.232 0.344 -0.463 0.69 -0.693 1.035l-0.231 0.338 -0.212 0.32 -0.192 0.286c-0.142 0.245 -0.142 0.245 -0.108 0.481 0.121 0.278 0.27 0.518 0.437 0.771l0.212 0.321c0.075 0.112 0.149 0.224 0.226 0.34l0.458 0.694 0.225 0.34a101.446 101.446 0 0 1 0.785 1.212c0.22 0.344 0.441 0.685 0.673 1.022C49.499 53.059 49.499 53.059 49.499 53.281c-0.642 0.17 -1.268 0.288 -1.891 0 -0.649 -0.648 -1.058 -1.504 -1.479 -2.31a34.26 34.26 0 0 0 -0.613 -1.109l-0.19 -0.333C45.184 49.265 45.184 49.265 44.939 49.166l-0.092 0.244c-0.221 0.529 -0.527 1.009 -0.819 1.501l-0.186 0.318A58.954 58.954 0 0 1 43.27 52.169l-0.188 0.324c-0.458 0.737 -0.458 0.737 -0.819 0.875 -0.247 0.023 -0.465 0.012 -0.71 -0.017l-0.246 -0.015A14.127 14.127 0 0 1 40.712 53.281c0.604 -1.18 1.335 -2.273 2.064 -3.377a222.914 222.914 0 0 0 0.343 -0.522 83.982 83.982 0 0 1 0.324 -0.491l0.147 -0.225 0.13 -0.197c0.119 -0.219 0.186 -0.391 0.217 -0.639a9.344 9.344 0 0 0 -0.521 -0.841 385.984 385.984 0 0 1 -0.339 -0.507l-0.18 -0.268c-0.308 -0.462 -0.603 -0.932 -0.899 -1.401l-0.167 -0.263A33.37 33.37 0 0 1 40.934 43.048" fill="#F8F8F9"/><path d="M40.044 25.918h5.895v1.446h-4.227v2.781h3.893v1.446h-3.893v3.226h4.227v1.446h-5.895z" fill="#F7F7F8"/><path d="M34.038 43.048h5.673v1.335h-4.116v2.892h3.893v1.335h-3.893v3.226h4.227v1.446h-5.784z" fill="#FCFCFC"/><path d="M63.404 43.938c3.975 0 3.975 0 4.727 0.716l0.212 0.194c0.412 0.469 0.433 0.846 0.435 1.467l0.006 0.434c-0.064 0.657 -0.309 1.079 -0.805 1.506l-0.222 0.197c-0.266 0.177 -0.479 0.227 -0.793 0.269q0.271 0.469 0.542 0.939l0.166 0.286a178.198 178.198 0 0 0 1 1.708q0.147 0.248 0.295 0.496C69.299 52.713 69.299 52.713 69.299 52.836c-0.356 0.052 -0.356 0.052 -0.779 0 -0.244 -0.238 -0.381 -0.526 -0.535 -0.827l-0.144 -0.255a15.017 15.017 0 0 1 -0.673 -1.352c-0.335 -0.746 -0.335 -0.746 -0.872 -1.348 -0.737 -0.255 -1.45 -0.158 -2.225 -0.111v3.893h-0.667z" fill="#EAEBED"/><path d="M89.321 43.938c3.88 0 3.88 0 4.804 0.897 0.568 0.72 0.489 1.566 0.424 2.44 -0.168 0.638 -0.544 1.108 -1.112 1.446 -1.106 0.629 -2.33 0.476 -3.56 0.445v3.671h-0.556z" fill="#071632"/><path d="M26.14 43.048h1.669v8.788h4.338v1.446h-6.007z" fill="#F9F9FA"/><path d="M26.14 25.918h1.669v10.345h-1.669z" fill="#F8F8F9"/><path d="M76.418 44.271c0.913 0.616 1.611 1.562 1.847 2.645 0.198 1.617 0.135 3.343 -0.873 4.7 -0.765 0.857 -1.572 1.267 -2.711 1.366 -1.143 0.037 -1.982 -0.119 -2.865 -0.862A17.798 17.798 0 0 1 71.413 51.724l-0.25 -0.25c-0.904 -1.421 -0.967 -3.32 -0.679 -4.938 0.369 -1.103 1.123 -1.955 2.153 -2.487 1.148 -0.472 2.701 -0.383 3.782 0.222m-4.732 1.322c-0.561 0.837 -0.644 1.693 -0.635 2.675l-0.003 0.284c0.004 1.198 0.259 2.121 1.031 3.06 0.62 0.615 1.272 0.729 2.113 0.737 1.007 -0.023 1.821 -0.168 2.544 -0.918 0.908 -1.15 0.986 -2.521 0.904 -3.935 -0.147 -1.052 -0.508 -1.732 -1.251 -2.475 -1.561 -0.993 -3.484 -0.921 -4.704 0.571" fill="#EEEEF0"/><path d="m61.068 44.271 -0.111 0.556c-0.353 -0.052 -0.679 -0.115 -1.018 -0.225 -0.487 -0.124 -0.922 -0.146 -1.422 -0.144l-0.256 -0.005c-0.999 -0.001 -1.809 0.352 -2.532 1.041 -0.746 0.921 -0.927 1.72 -0.918 2.885l-0.003 0.325c0.003 1.138 0.283 1.931 1.031 2.797 0.826 0.697 1.747 0.816 2.795 0.806l0.297 0.003c0.509 -0.001 0.891 -0.031 1.358 -0.253h0.334v-3.115h-2.67v-0.556h3.226v4.004c-1.502 0.643 -3.363 0.883 -4.926 0.273 -1.049 -0.561 -1.698 -1.404 -2.093 -2.505 -0.319 -1.171 -0.306 -2.878 0.205 -3.981 0.625 -1.069 1.459 -1.887 2.659 -2.279 1.285 -0.252 2.857 -0.221 4.043 0.372" fill="#F0F1F3"/><path d="m64.071 44.494 1.161 -0.028 0.36 -0.012c0.861 -0.01 1.528 0.165 2.206 0.707 0.4 0.533 0.329 1.255 0.278 1.891 -0.183 0.529 -0.423 0.808 -0.89 1.112 -0.633 0.284 -1.253 0.248 -1.933 0.236L64.071 48.387z" fill="#081632"/><path d="M59.782 66.866c0.447 0.327 0.774 0.674 0.952 1.21 0.076 1.074 0.031 1.814 -0.66 2.663 -0.363 0.345 -0.637 0.395 -1.133 0.403 -0.536 -0.022 -0.993 -0.091 -1.402 -0.458l-0.162 -0.196 -0.165 -0.193c-0.432 -0.633 -0.436 -1.255 -0.371 -1.997 0.139 -0.695 0.427 -1.043 1.001 -1.446 0.557 -0.279 1.367 -0.174 1.94 0.014" fill="#09162D"/><path d="M80.2 43.938h0.667l0.002 0.234q0.01 1.097 0.024 2.194c0.005 0.376 0.009 0.752 0.012 1.128 0.004 0.433 0.01 0.867 0.016 1.3l0.002 0.405c0.014 0.84 0.051 1.666 0.6 2.341 0.075 0.059 0.149 0.117 0.226 0.178l0.226 0.184c0.729 0.505 1.482 0.462 2.34 0.379 0.65 -0.18 1.086 -0.452 1.453 -1.022A9.566 9.566 0 0 0 85.984 50.834l0.111 -0.222c0.013 -0.212 0.02 -0.425 0.023 -0.638l0.007 -0.405 0.006 -0.439 0.007 -0.448q0.009 -0.59 0.017 -1.18 0.009 -0.602 0.018 -1.203 0.018 -1.181 0.034 -2.362h0.667q0.016 1.23 0.023 2.46 0.003 0.571 0.011 1.143c0.006 0.439 0.008 0.879 0.01 1.318l0.007 0.409c0 0.99 -0.172 1.814 -0.69 2.666 -0.91 0.859 -1.862 1.065 -3.094 1.042 -0.886 -0.063 -1.653 -0.379 -2.273 -1.028 -0.454 -0.713 -0.682 -1.357 -0.68 -2.2v-0.391l0.002 -0.421 0.001 -0.432q0.001 -0.567 0.003 -1.135 0.002 -0.579 0.002 -1.159 0.002 -1.136 0.005 -2.272" fill="#E9EAED"/><path d="M89.321 43.938c3.88 0 3.88 0 4.804 0.897 0.568 0.72 0.489 1.566 0.424 2.44 -0.168 0.638 -0.544 1.108 -1.112 1.446 -1.106 0.629 -2.33 0.476 -3.56 0.445v3.671h-0.556zm0.556 0.556v4.116c1.972 0.116 1.972 0.116 3.671 -0.667 0.435 -0.719 0.421 -1.406 0.334 -2.225 -0.136 -0.401 -0.365 -0.607 -0.702 -0.862 -0.757 -0.352 -1.415 -0.391 -2.239 -0.375z" fill="#F2F3F4"/><path d="m32.258 31.591 1.217 -0.028 0.377 -0.012c0.736 -0.008 1.338 0.079 1.966 0.485 0.342 0.445 0.395 0.879 0.372 1.426 -0.063 0.402 -0.207 0.614 -0.483 0.909 -0.701 0.503 -1.389 0.5 -2.225 0.473l-1.224 -0.028z" fill="#071632"/><path d="M18.91 50.612c0.07 0.202 0.07 0.202 0.111 0.445l-0.222 0.334h0.222l-0.222 2.113 0.556 0.111c0.146 0.229 0.146 0.229 0.222 0.445 -0.202 0.334 -0.202 0.334 -0.445 0.667h-0.334v-0.667l-1.001 -0.111c-0.045 0.469 -0.045 0.469 0.111 0.89 0.363 0.219 0.726 0.37 1.123 0.52L19.355 55.506c0.155 0.465 -0.02 0.682 -0.222 1.112l-0.222 -0.111c-0.07 -0.285 -0.07 -0.285 -0.111 -0.556 0.072 1.006 0.072 1.006 0.222 2.002h0.222v0.89l-2.002 -0.111v-0.779h0.222v-0.445h0.222c-0.009 -0.345 -0.022 -0.691 -0.035 -1.036l-0.008 -0.297 -0.012 -0.286 -0.009 -0.263c-0.059 -0.284 -0.174 -0.371 -0.382 -0.566 -0.021 -0.299 -0.021 -0.299 0 -0.556l0.445 -0.222v-0.334h-0.89v-0.556h0.556l-0.222 0.445c0.259 -0.107 0.259 -0.107 0.445 -0.445v0.445h0.222l-0.055 -0.231c-0.063 -0.367 -0.067 -0.711 -0.063 -1.083l0.003 -0.392L17.686 51.835h-0.222v-0.445h0.222l-0.222 -0.334v-0.334c0.529 -0.22 0.886 -0.223 1.446 -0.111" fill="#9B241A"/><path d="M8.676 50.389h0.222v0.222l0.556 0.111c0 0.445 0 0.445 -0.111 0.667h0.222l-0.222 1.891h0.779c0.222 0.222 0.222 0.222 0.222 0.667l-2.002 0.111v1.112l1.001 -0.334v-0.556l0.445 0.222c0.021 0.32 0.021 0.32 0 0.667l-0.334 0.222a7.786 7.786 0 0 0 -0.028 0.918l0.002 0.253c0.007 0.473 0.045 0.922 0.137 1.387h0.222v0.779l-2.002 0.111v-0.89c0.321 -0.16 0.603 -0.122 0.959 -0.118l0.401 0.003L9.455 57.842v-0.222H8.12v-1.112l-0.445 -0.222v-0.779l0.216 -0.076c0.26 -0.13 0.26 -0.13 0.313 -0.438L8.231 54.727l-0.209 -0.028C7.786 54.616 7.786 54.616 7.647 54.415 7.564 54.171 7.564 54.171 7.564 53.726c0.334 -0.222 0.334 -0.222 0.667 -0.222l-0.111 -2.781 0.556 -0.111z" fill="#9A251A"/><path d="M49.833 27.364c2.322 -0.055 2.322 -0.055 3.052 0.563 0.401 0.498 0.333 1.047 0.285 1.662 -0.197 0.516 -0.528 0.731 -1.001 1.001 -0.307 0.096 -0.581 0.125 -0.902 0.122l-0.229 -0.001 -0.287 -0.003L49.833 30.701z" fill="#061531"/><path d="M13.571 51.39h3.115v3.448h-2.113l-0.334 -0.779c-0.226 -0.264 -0.226 -0.264 -0.667 -0.334z" fill="#C2C2C2"/><path d="m32.258 27.364 1.168 -0.028 0.363 -0.012c0.688 -0.008 1.244 0.062 1.806 0.485 0.331 0.496 0.291 0.975 0.222 1.557 -0.199 0.374 -0.334 0.506 -0.716 0.68 -0.557 0.139 -1.09 0.122 -1.662 0.113L32.258 30.145z" fill="#061431"/><path d="m13.404 50.925 0.393 -0.004 0.375 -0.001 0.345 -0.001C14.794 50.945 14.794 50.945 15.017 51.168c-0.445 0.111 -0.445 0.111 -1.446 0.111v2.447l0.556 0.111c0.363 0.363 0.445 0.477 0.445 1.001h2.113v0.111h-2.002l-0.222 0.667c-0.181 0.209 -0.181 0.209 -0.334 0.334 -0.163 -0.047 -0.325 -0.096 -0.487 -0.146l-0.274 -0.082C13.126 55.617 13.126 55.617 12.903 55.284c-0.014 -0.299 -0.014 -0.299 0 -0.556l0.445 -0.111v-0.334l-0.334 0.111c-0.09 0.234 -0.09 0.234 -0.132 0.508l-0.054 0.278L12.792 55.395l-0.222 -0.111 -0.111 -0.667 -1.446 -0.111v-0.667h0.222l-0.028 -0.276 -0.034 -0.363 -0.035 -0.36c-0.012 -0.296 0.007 -0.502 0.098 -0.78h0.445v-0.334h0.556v0.334h0.445c0.092 0.624 0.119 1.159 0 1.78l0.779 -0.111v-2.336h-1.335v-0.222l-0.334 -0.111c0.471 -0.235 1.095 -0.132 1.613 -0.132" fill="#692124"/><path d="M13.459 46.83h0.222l0.222 1.001 0.396 -0.028c0.508 0.001 0.983 0.093 1.474 0.216l0.426 0.106c0.424 0.172 0.588 0.316 0.818 0.708 0.037 0.386 -0.048 0.764 -0.222 1.112h-0.334l-0.111 0.222h-0.445v-0.222h0.334v-0.222h0.222c-0.039 -0.22 -0.039 -0.22 -0.111 -0.445 -0.348 -0.174 -0.732 -0.156 -1.112 -0.111l-0.334 0.222 -0.111 -0.445 -1.001 -0.222v0.667l0.334 0.111c-0.297 0.148 -0.464 0.075 -0.779 0l0.111 -0.445h-0.222v-0.445l-1.001 0.334c-0.048 0.431 -0.048 0.431 0.167 0.64L12.57 49.722l-0.334 0.111 -0.222 -0.111v0.222h-0.445v-0.334h0.222v-0.445h-1.001l-0.222 0.556 0.667 0.111v0.334c-0.344 -0.047 -0.673 -0.107 -1.001 -0.222 -0.261 -0.352 -0.224 -0.543 -0.181 -0.98L10.122 48.61h0.222l0.111 -0.334c0.749 -0.318 2.002 -0.704 2.781 -0.445 0.092 -0.322 0.111 -0.544 0.111 -0.89z" fill="#846B0F"/><path d="M28.254 66.741h0.779l0.123 0.338c0.361 0.986 0.755 1.941 1.212 2.887l0.075 -0.188q0.171 -0.431 0.343 -0.862l0.117 -0.296A43.27 43.27 0 0 1 31.702 66.741h0.779v4.227h-0.556l-0.111 -3.226c-0.629 1.606 -0.629 1.606 -1.224 3.226h-0.556l-1.224 -3.337 -0.111 3.337h-0.445z" fill="#E0B005"/><path d="M44.828 66.741c1.923 0 1.923 0 2.519 0.482 0.242 0.298 0.202 0.568 0.191 0.939 -0.059 0.363 -0.222 0.556 -0.485 0.804l-0.222 0.111c0.191 0.517 0.46 0.957 0.752 1.423C47.72 70.745 47.72 70.745 47.72 70.968c-0.248 0.052 -0.248 0.052 -0.556 0 -0.232 -0.346 -0.414 -0.691 -0.594 -1.066 -0.224 -0.443 -0.224 -0.443 -0.638 -0.68 -0.273 -0.039 -0.273 -0.039 -0.659 -0.034v1.78h-0.445z" fill="#ECB803"/><path d="M74.194 66.741c1.792 0 1.792 0 2.336 0.334 0.313 0.469 0.313 0.895 0.222 1.446 -0.162 0.255 -0.311 0.372 -0.556 0.556 0.143 0.519 0.365 0.914 0.665 1.354C76.974 70.634 76.974 70.634 76.974 70.968c-0.256 -0.023 -0.256 -0.023 -0.556 -0.111 -0.192 -0.235 -0.192 -0.235 -0.355 -0.528 -0.055 -0.096 -0.109 -0.192 -0.165 -0.29 -0.141 -0.279 -0.26 -0.558 -0.371 -0.85h-0.89v1.78h-0.445z" fill="#EFBA02"/><path d="M33.593 66.741h0.779l0.063 0.176q0.145 0.406 0.292 0.811l0.098 0.277c0.247 0.68 0.546 1.321 0.882 1.961l0.075 -0.2q0.171 -0.456 0.343 -0.912l0.117 -0.315c0.234 -0.62 0.493 -1.211 0.8 -1.798h0.667v4.227h-0.445l-0.111 -3.337 -0.355 1.043c-0.274 0.795 -0.562 1.562 -0.98 2.294h-0.445l-1.224 -3.226 -0.111 3.226h-0.445z" fill="#EBB703"/><path d="M29.811 59.733c1.891 0 1.891 0 2.558 0.445 0.192 0.385 0.15 0.802 0.111 1.224 -0.157 0.424 -0.289 0.53 -0.681 0.758 -0.477 0.182 -0.927 0.155 -1.432 0.132v1.669h-0.556z" fill="#E3B205"/><path d="M57.62 38.71c0.366 0.193 0.702 0.403 0.89 0.779 0.046 0.409 0.019 0.63 -0.167 1.001 -0.495 0.594 -1.151 1.161 -1.944 1.247 -0.596 0.027 -0.596 0.027 -0.861 -0.156 -0.293 -0.413 -0.204 -0.944 -0.143 -1.425 0.425 -0.901 1.221 -1.545 2.225 -1.446" fill="#0B1935"/><path d="M13.237 48.61v0.445h0.222l-0.111 0.445h0.667l-0.222 -0.111v-0.667c0.162 0.007 0.325 0.017 0.487 0.028l0.274 0.016c0.241 0.068 0.241 0.068 0.384 0.296L15.017 49.277l0.222 -0.222c0.812 -0.052 0.812 -0.052 1.224 0.222v0.445h-0.222v0.222h-0.334v0.222l0.445 -0.111v0.222c-0.525 0.125 -0.834 0.082 -1.335 -0.111 -0.24 -0.009 -0.24 -0.009 -0.535 0.077 -0.423 0.041 -0.575 -0.052 -0.911 -0.299l0.111 0.334 -0.32 -0.007c-0.337 -0.018 -0.337 -0.018 -0.57 0.118l-0.111 0.334 -0.445 -0.111 0.111 -0.222a19.689 19.689 0 0 0 -0.779 -0.111l-0.111 0.111a19.689 19.689 0 0 1 -0.779 -0.111v-0.222l0.556 0.111v-0.334l-0.667 -0.111c0.097 -0.542 0.097 -0.542 0.222 -0.667a8.343 8.343 0 0 1 0.508 -0.007l0.278 0.003L11.791 49.055l0.111 0.334 -0.111 0.222h-0.222v0.334h0.445v-0.222l0.445 -0.111 -0.334 -0.222c0.021 -0.264 0.021 -0.264 0.111 -0.556 0.365 -0.207 0.575 -0.222 1.001 -0.222" fill="#8B2111"/><path d="M37.041 59.622h0.667c0.192 0.201 0.192 0.201 0.355 0.494l0.193 0.332 0.108 0.188c0.245 0.417 0.513 0.819 0.777 1.224l0.165 0.256 0.293 0.453c0.103 0.165 0.103 0.165 0.224 0.278l0.111 -3.115h0.445v4.227c-0.556 0 -0.556 0 -0.717 -0.152l-0.129 -0.214 -0.15 -0.24 -0.151 -0.255c-0.491 -0.801 -1 -1.58 -1.523 -2.364l-0.111 3.226h-0.556z" fill="#EFBA02"/><path d="M61.624 66.741h0.667c0.217 0.266 0.371 0.496 0.535 0.793q0.143 0.244 0.286 0.488c0.048 0.083 0.096 0.166 0.145 0.251 0.227 0.387 0.471 0.762 0.716 1.138l0.431 0.667 0.111 -3.337h0.445v4.227h-0.667c-0.219 -0.271 -0.376 -0.505 -0.542 -0.806a247.831 247.831 0 0 0 -0.287 -0.488l-0.143 -0.247c-0.319 -0.54 -0.68 -1.053 -1.03 -1.573l-0.111 3.115h-0.556z" fill="#E1B005"/><path d="M34.372 59.733h0.556a45.05 45.05 0 0 1 1.092 2.552l0.137 0.342 0.129 0.329 0.116 0.294C36.485 63.515 36.485 63.515 36.485 63.96c-0.257 0 -0.257 0 -0.556 -0.111 -0.225 -0.392 -0.334 -0.773 -0.334 -1.224l-1.78 0.111 -0.445 1.224h-0.556c0.075 -0.451 0.214 -0.848 0.382 -1.272l0.163 -0.413 0.171 -0.428 0.17 -0.428A533.37 533.37 0 0 1 34.372 59.733" fill="#DEAE06"/><path d="M14.572 55.172h1.78q0.009 0.483 0.014 0.966l0.006 0.275c0.005 0.583 -0.038 1.017 -0.374 1.511 -0.318 0.219 -0.599 0.231 -0.98 0.25 -0.382 -0.104 -0.382 -0.104 -0.667 -0.222v-0.222l-0.334 -0.111c-0.141 -0.352 -0.123 -0.709 -0.118 -1.085l0.003 -0.332L13.904 55.951l0.209 -0.014L14.349 55.84z" fill="#BD8108"/><path d="M49.499 66.741c0.25 -0.009 0.25 -0.009 0.556 0.111 0.199 0.322 0.318 0.673 0.445 1.029l0.115 0.305q0.114 0.303 0.226 0.608a26.585 26.585 0 0 0 0.285 0.737C51.502 70.465 51.502 70.465 51.502 70.968h-0.445a62.625 62.625 0 0 1 -0.222 -0.48l-0.125 -0.27C50.612 69.967 50.612 69.967 50.612 69.633h-1.78l-0.111 0.556a56.841 56.841 0 0 1 -0.222 0.779h-0.556c0.067 -0.5 0.196 -0.93 0.382 -1.398l0.163 -0.413 0.085 -0.212q0.129 -0.322 0.256 -0.644c0.451 -1.137 0.451 -1.137 0.672 -1.559" fill="#E9B604"/><path d="M10.345 51.39h3.115v2.336l-0.779 0.111c-0.009 -0.463 0.002 -0.884 0.111 -1.335l-0.222 -0.111 0.111 -0.334h-0.445v-0.334h-0.556v0.334h-0.445l0.111 0.445h-0.222l0.056 0.229c0.063 0.373 0.063 0.727 0.056 1.105h-0.222v0.667h1.446v0.334H10.345v-0.779l-0.334 -0.111h0.334l-0.059 -0.213c-0.072 -0.466 -0.036 -0.91 -0.004 -1.379z" fill="#A61517"/><path d="M59.782 66.866c0.447 0.327 0.774 0.674 0.952 1.21 0.076 1.074 0.031 1.814 -0.66 2.663 -0.363 0.345 -0.637 0.395 -1.133 0.403 -0.536 -0.022 -0.993 -0.091 -1.402 -0.458l-0.162 -0.196 -0.165 -0.193c-0.432 -0.633 -0.436 -1.255 -0.371 -1.997 0.139 -0.695 0.427 -1.043 1.001 -1.446 0.557 -0.279 1.367 -0.174 1.94 0.014M57.62 67.631c-0.303 0.607 -0.337 1.359 -0.159 2.013 0.141 0.351 0.299 0.65 0.604 0.879 0.403 0.134 0.689 0.147 1.112 0.111 0.495 -0.257 0.759 -0.502 1.001 -1.001 0.083 -0.636 0.16 -1.409 -0.195 -1.974 -0.388 -0.388 -0.697 -0.506 -1.244 -0.514 -0.509 0.012 -0.779 0.083 -1.119 0.487" fill="#E5B304"/><path d="m42.554 66.713 0.376 -0.002c0.325 0.028 0.511 0.083 0.785 0.252l-0.111 0.334 -0.37 -0.012q-0.243 -0.005 -0.485 -0.009l-0.243 -0.009c-0.512 -0.007 -0.833 0.044 -1.238 0.363 -0.393 0.556 -0.417 1.122 -0.334 1.78 0.152 0.378 0.152 0.378 0.334 0.667v0.222c0.661 0.294 1.292 0.238 2.002 0.222v-1.335h-0.89v-0.445h1.446v2.225c-0.739 0.246 -1.803 0.281 -2.535 -0.014 -0.587 -0.422 -0.872 -0.955 -1.024 -1.654 -0.083 -0.727 0.023 -1.287 0.445 -1.891 0.556 -0.541 1.076 -0.699 1.842 -0.695" fill="#DEAE06"/><path d="M46.385 59.733h0.556v1.78h2.225v-1.78h0.445v4.227h-0.445v-2.002h-2.225v2.002h-0.556z" fill="#E8B504"/><path d="m13.459 49.833 0.278 0.181c0.524 0.206 0.753 0.103 1.279 -0.07l0.111 0.222c0.262 0.052 0.262 0.052 0.563 0.07l0.31 0.025L16.24 50.278l-0.271 0.257c-0.304 0.276 -0.304 0.276 -0.396 0.633l1.224 0.111v2.002h1.001v0.556h-0.667l-0.111 -0.334 0.334 -0.111h-0.556v0.556l0.222 0.111h-0.222v3.226h-0.111v-5.895h-3.115v-0.111l0.211 -0.02 0.276 -0.028 0.274 -0.027c0.246 -0.023 0.246 -0.023 0.463 -0.146h-2.781l0.111 0.334H10.345v-0.111l1.112 -0.111v-0.445l-0.215 -0.097C11.012 50.501 11.012 50.501 10.901 50.278l0.556 0.111 -0.111 -0.334h0.222v0.222l0.779 0.111v0.222l0.334 0.111 0.111 -0.445 0.779 -0.111z" fill="#9C8B05"/><path d="m45.495 59.844 -0.111 0.445 -0.361 -0.004 -0.466 -0.003 -0.238 -0.003c-0.201 -0.001 -0.402 0.004 -0.603 0.01 -0.145 0.123 -0.145 0.123 -0.16 0.424 0.012 0.375 0.012 0.375 0.32 0.591 0.295 0.17 0.604 0.299 0.918 0.431 0.274 0.121 0.481 0.223 0.716 0.41 0.161 0.427 0.118 0.826 -0.014 1.258 -0.372 0.392 -0.689 0.547 -1.231 0.571l-0.389 -0.001 -0.39 0.001C43.159 63.96 43.159 63.96 42.937 63.849v-0.445l0.353 0.008q0.23 0.003 0.46 0.006c0.077 0.002 0.154 0.004 0.233 0.006 0.419 0.004 0.598 -0.003 0.956 -0.242 0.083 -0.324 0.083 -0.324 0 -0.667 -0.335 -0.286 -0.655 -0.44 -1.064 -0.605 -0.428 -0.195 -0.66 -0.35 -0.939 -0.73 -0.079 -0.315 -0.081 -0.575 0 -0.89 0.693 -0.88 1.593 -0.767 2.558 -0.445" fill="#EAB703"/><path d="M86.652 66.741h2.336v0.445h-1.891v1.335h1.78v0.445h-1.78v1.557h1.891v0.445h-2.336z" fill="#EBB703"/><path d="M70.857 66.741h2.336v0.445h-1.891v1.335h1.78v0.445h-1.78v1.557h1.891v0.445h-2.336z" fill="#EEB903"/><path d="M28.81 59.844v0.445l-0.361 -0.004 -0.466 -0.003 -0.238 -0.003c-0.201 -0.001 -0.402 0.004 -0.603 0.01 -0.145 0.123 -0.145 0.123 -0.16 0.424 0.011 0.373 0.011 0.373 0.313 0.584 0.411 0.236 0.844 0.434 1.274 0.633C28.81 62.069 28.81 62.069 29.032 62.403c0.025 0.346 -0.016 0.667 -0.111 1.001 -0.372 0.392 -0.689 0.547 -1.231 0.571l-0.389 -0.001 -0.39 0.001C26.585 63.96 26.585 63.96 26.363 63.849v-0.445l0.353 0.008q0.23 0.003 0.46 0.006c0.077 0.002 0.154 0.004 0.233 0.006 0.419 0.004 0.598 -0.003 0.956 -0.242 0.028 -0.343 0.028 -0.343 0 -0.667l-0.353 -0.175 -0.46 -0.235 -0.233 -0.114c-0.462 -0.239 -0.743 -0.424 -0.956 -0.921 -0.056 -0.389 -0.056 -0.389 0 -0.779 0.232 -0.297 0.417 -0.496 0.765 -0.646 0.617 -0.055 1.101 -0.025 1.682 0.202" fill="#E8B504"/><path d="m91.094 66.727 0.358 -0.001C91.769 66.741 91.769 66.741 92.102 66.852v0.445l-0.333 -0.008 -0.432 -0.006 -0.43 -0.008c-0.372 -0.018 -0.372 -0.018 -0.585 0.244 -0.065 0.269 -0.065 0.269 0 0.556 0.291 0.299 0.553 0.444 0.939 0.605 0.463 0.203 0.719 0.36 1.064 0.73 0.069 0.427 0.037 0.683 -0.118 1.085 -0.359 0.417 -0.742 0.563 -1.277 0.608 -0.445 0.006 -0.845 -0.013 -1.275 -0.135v-0.556l0.216 0.056c0.634 0.103 1.216 0.161 1.787 -0.167v-0.779l-0.325 -0.147 -0.426 -0.201 -0.214 -0.096c-0.508 -0.243 -0.764 -0.493 -1.038 -1.003 -0.063 -0.341 -0.063 -0.341 0 -0.667 0.47 -0.557 0.727 -0.683 1.439 -0.681" fill="#E9B604"/><path d="M77.197 66.741h0.556l1.224 3.226c0.344 -1.019 0.344 -1.019 0.682 -2.04l0.133 -0.382 0.132 -0.394C80.089 66.852 80.089 66.852 80.386 66.753L80.645 66.741c-0.071 0.544 -0.228 1.037 -0.417 1.55q-0.09 0.25 -0.18 0.5l-0.092 0.255c-0.226 0.637 -0.435 1.28 -0.646 1.922h-0.667l-0.106 -0.33c-0.232 -0.713 -0.468 -1.408 -0.786 -2.088C77.197 67.27 77.197 67.27 77.197 66.741" fill="#E5B304"/><path d="m68.91 66.727 0.323 -0.001C69.522 66.741 69.522 66.741 69.855 66.852v0.445l-0.333 -0.004 -0.432 -0.003 -0.43 -0.004c-0.35 -0.015 -0.35 -0.015 -0.585 0.122v0.779l0.357 0.187q0.232 0.122 0.463 0.244l0.235 0.123c0.587 0.311 0.587 0.311 0.835 0.558 0.077 0.512 0.102 0.968 -0.202 1.397 -0.48 0.315 -0.935 0.284 -1.488 0.278l-0.253 -0.002q-0.308 -0.002 -0.616 -0.005v-0.556l0.222 0.056c0.554 0.092 1.028 0.133 1.557 -0.076 0.244 -0.185 0.244 -0.185 0.299 -0.473 -0.093 -0.346 -0.236 -0.444 -0.538 -0.623 -0.219 -0.114 -0.441 -0.218 -0.665 -0.322 -0.403 -0.199 -0.652 -0.383 -0.876 -0.786 -0.063 -0.389 -0.063 -0.389 0 -0.779 0.453 -0.564 0.798 -0.683 1.502 -0.681" fill="#EAB703"/><path d="m9.344 55.395 0.02 0.39 0.028 0.514 0.013 0.256c0.026 0.473 0.072 0.931 0.161 1.398h0.222v0.779l-2.002 0.111v-0.89c0.321 -0.16 0.603 -0.122 0.959 -0.118l0.401 0.003L9.455 57.842v-0.222H8.12c-0.018 -0.573 -0.014 -1.107 0.111 -1.669 0.286 -0.296 0.681 -0.556 1.112 -0.556" fill="#907E15"/><path d="M15.239 51.613c0.319 0.064 0.429 0.096 0.667 0.334 0.234 -0.035 0.234 -0.035 0.445 -0.111 -0.102 0.524 -0.102 0.524 -0.174 0.772 -0.064 0.301 -0.056 0.59 -0.049 0.897l-0.222 0.111 0.063 0.188c0.057 0.302 0.011 0.518 -0.063 0.813h-0.445l-0.111 -0.556 -0.667 0.222v-0.222l-0.222 -0.111 0.111 -0.222h0.222l0.111 -0.556h-0.445v0.222l-0.445 -0.111v-0.445l0.445 0.111v-0.222l-0.556 -0.222 0.111 -0.445 0.445 -0.111 0.097 0.216c0.106 0.246 0.106 0.246 0.348 0.341l-0.334 -0.556 0.271 -0.042L15.128 51.835z" fill="#9C607B"/><path d="m84.629 66.72 0.35 -0.005c0.343 0.026 0.585 0.103 0.895 0.248l-0.111 0.334 -0.345 -0.02q-0.227 -0.008 -0.454 -0.015l-0.227 -0.014c-0.432 -0.011 -0.618 0.03 -0.96 0.301 -0.459 0.587 -0.542 1.014 -0.46 1.75 0.122 0.435 0.298 0.835 0.667 1.112 0.381 0.127 0.677 0.122 1.078 0.118l0.398 -0.003L85.762 70.523v0.445c-0.715 0.21 -1.508 0.249 -2.176 -0.09L83.315 70.634l-0.195 -0.153c-0.367 -0.477 -0.394 -1.046 -0.396 -1.627l-0.006 -0.396c0.053 -0.498 0.201 -0.865 0.545 -1.233 0.502 -0.384 0.736 -0.501 1.366 -0.505" fill="#E8B504"/><path d="M54.171 38.71v0.334l-0.236 0.139A2.948 2.948 0 0 0 52.836 40.378c-0.004 0.222 -0.005 0.445 0 0.667l0.222 0.111 0.028 -0.306c0.099 -0.427 0.161 -0.568 0.528 -0.806 0.525 -0.076 0.888 -0.076 1.335 0.222 0.077 0.306 0.077 0.306 0 0.667 -0.329 0.404 -0.692 0.632 -1.206 0.725 -0.464 0.017 -0.798 0.004 -1.207 -0.224 -0.211 -0.402 -0.247 -0.733 -0.146 -1.168 0.358 -0.736 0.907 -1.557 1.78 -1.557" fill="#C7C9D0"/><path d="M11.791 54.95h0.334v3.56h0.334v-3.115l0.334 0.222c0.048 0.26 0.048 0.26 0.057 0.581l0.012 0.348 0.008 0.364 0.011 0.367q0.014 0.449 0.023 0.899l0.556 -0.111v0.334l-0.556 0.111c0.449 0.071 0.88 0.125 1.335 0.111v-0.222h-0.556v-0.334c0.331 0.078 0.651 0.176 0.973 0.285l0.269 0.091L15.128 58.509v0.334c-0.557 0.089 -1.105 0.127 -1.669 0.139l-0.382 0.009C12.681 58.954 12.681 58.954 11.791 58.621z" fill="#AA9C6C"/><path d="M51.613 66.741h3.226v0.445h-1.335v3.782h-0.556v-3.782h-1.335z" fill="#E3B105"/><path d="M48.053 25.918h3.782v0.111h-3.56v10.011h1.446v-3.893h0.111v4.116h-1.78z" fill="#C5C8CE"/><path d="M8.676 50.389h0.222v0.222l0.556 0.111c0 0.445 0 0.445 -0.111 0.667h0.222l-0.222 1.891h-0.779v0.222h-0.334l-0.111 -2.781 0.556 -0.111z" fill="#998308"/><path d="M57.62 38.71c0.366 0.193 0.702 0.403 0.89 0.779 0.046 0.409 0.019 0.63 -0.167 1.001 -0.495 0.594 -1.151 1.161 -1.944 1.247 -0.596 0.027 -0.596 0.027 -0.861 -0.156 -0.293 -0.413 -0.204 -0.944 -0.143 -1.425 0.425 -0.901 1.221 -1.545 2.225 -1.446m-1.669 1.224c-0.223 0.387 -0.262 0.663 -0.222 1.112 0.212 0.257 0.212 0.257 0.57 0.271 0.667 -0.075 1.08 -0.418 1.599 -0.82 0.231 -0.318 0.223 -0.512 0.167 -0.897 -0.085 -0.28 -0.085 -0.28 -0.334 -0.445 -0.83 -0.207 -1.297 0.121 -1.78 0.779" fill="#DCDEE2"/><path d="M49.166 38.821h2.225c-0.111 0.445 -0.111 0.445 -0.452 0.695L50.612 39.711l0.375 0.097C51.39 39.933 51.39 39.933 51.613 40.156c0 0.372 -0.008 0.657 -0.256 0.949 -0.513 0.437 -0.889 0.511 -1.544 0.504l-0.366 -0.003L49.166 41.602l-0.111 -0.445q0.438 0 0.876 0.021c0.447 -0.001 0.751 -0.098 1.126 -0.355 0.107 -0.231 0.107 -0.231 0.111 -0.445 -0.294 -0.147 -0.52 -0.122 -0.848 -0.118l-0.338 0.003L49.722 40.267c0.085 -0.468 0.283 -0.614 0.667 -0.89l-1.112 -0.111z" fill="#E0E2E5"/><path d="M45.273 67.186c0.989 -0.04 0.989 -0.04 1.46 0.111 0.265 0.283 0.267 0.506 0.261 0.886 -0.07 0.305 -0.158 0.455 -0.386 0.671 -0.325 0.043 -0.325 0.043 -0.688 0.028L45.273 68.854z" fill="#1A222A"/><path d="M14.683 54.95h2.002c0.018 0.429 0.031 0.857 0.042 1.286l0.017 0.366c0.011 0.596 0.016 1.014 -0.379 1.482 -0.284 0.279 -0.5 0.472 -0.903 0.536 -0.611 -0.059 -1.003 -0.113 -1.446 -0.556h1.78l0.111 -0.334 0.222 -0.111c0.1 -0.629 0.12 -1.237 0.104 -1.873C16.24 55.506 16.24 55.506 16.352 55.172l-0.403 0.056c-0.387 0.049 -0.763 0.065 -1.154 0.056z" fill="#9B2013"/><path d="M74.638 67.186c1.069 -0.048 1.069 -0.048 1.557 0.334 0.111 0.111 0.111 0.111 0.146 0.424 -0.035 0.355 -0.035 0.355 -0.243 0.612 -0.481 0.382 -0.859 0.307 -1.46 0.299z" fill="#131D2C"/><path d="M30.367 60.178c1.009 -0.054 1.009 -0.054 1.46 0.181C32.036 60.623 32.036 60.623 32.098 60.957c-0.076 0.403 -0.187 0.531 -0.508 0.779 -0.306 0.102 -0.485 0.123 -0.799 0.118L30.367 61.846z" fill="#0C182D"/><path d="m14.905 49.944 0.222 0.222c0.271 0.051 0.271 0.051 0.57 0.07l0.307 0.025L16.24 50.278l-0.271 0.257c-0.304 0.276 -0.304 0.276 -0.396 0.633l1.224 0.111v2.002h1.001v0.556h-0.667l-0.111 -0.334 0.334 -0.111h-0.556v0.556l0.222 0.111h-0.222v3.226h-0.111v-5.895h-3.115v-0.111l0.211 -0.016 0.276 -0.025c0.09 -0.008 0.181 -0.016 0.274 -0.023 0.263 -0.027 0.263 -0.027 0.463 -0.269 0.292 -0.014 0.292 -0.014 0.556 0l-0.111 -0.111h-0.222v-0.334l-0.222 -0.111v0.334h-0.445v-0.222l-0.334 -0.111z" fill="#976616"/><path d="M41.491 59.622h0.556v4.338h-0.556z" fill="#D0A508"/><path d="M55.395 66.741h0.556v4.227h-0.556z" fill="#E0AE05"/><path d="M26.585 66.741h0.556v4.227h-0.556z" fill="#E0AF05"/><path d="M18.91 50.612c0.07 0.202 0.07 0.202 0.111 0.445l-0.222 0.334h0.222l-0.111 0.779h-1.224v-0.334h-0.222v-0.445h0.222l-0.222 -0.334v-0.334c0.529 -0.22 0.886 -0.223 1.446 -0.111" fill="#5F2808"/><path d="M34.928 60.512h0.222v0.334l0.334 0.111c0.13 0.24 0.13 0.24 0.252 0.555l0.133 0.343 0.136 0.361c0.046 0.118 0.092 0.235 0.14 0.357C36.485 63.455 36.485 63.455 36.485 63.96c-0.262 -0.017 -0.262 -0.017 -0.556 -0.111 -0.213 -0.392 -0.312 -0.795 -0.445 -1.224l-1.446 -0.111v-0.334h1.335l-0.222 -0.459c-0.19 -0.422 -0.271 -0.741 -0.222 -1.21" fill="#E5B304"/><path d="M11.68 51.724h0.556v0.334h0.445v0.779l-0.445 -0.111 -0.111 0.556 -0.334 -0.222h-0.334v1.001l0.222 0.111v0.222h-0.667v-0.556h0.222l-0.028 -0.276 -0.034 -0.363 -0.035 -0.36c-0.012 -0.296 0.007 -0.502 0.098 -0.78h0.445z" fill="#594D00"/><path d="M15.35 51.502h1.224v3.226h-1.112l0.445 -0.111v-1.112h0.222l-0.036 -0.196c-0.092 -0.599 -0.082 -0.943 0.259 -1.473h-0.334l-0.111 0.222z" fill="#C9C9C9"/><path d="M12.681 52.503h0.111l-0.111 1.335 0.445 0.111c-0.246 0.246 -0.437 0.43 -0.791 0.475 -0.218 -0.002 -0.437 -0.015 -0.655 -0.03v-0.222l-0.334 -0.111 0.111 -1.001c0.445 -0.111 0.445 -0.111 0.667 -0.111l0.111 -0.334 0.334 0.111z" fill="#533E09"/><path d="M81.313 66.741h0.445v4.227h-0.445z" fill="#F0BB02"/><path d="M38.932 66.741h0.445v4.227h-0.445z" fill="#F2BE02"/><path d="M13.237 56.062h0.222l0.111 1.335 0.111 -1.335h0.222l0.037 0.329 0.053 0.429 0.051 0.426c0.08 0.369 0.126 0.482 0.415 0.707v0.111h-0.779c0.214 0.247 0.214 0.247 0.556 0.334v0.222c-0.178 0.028 -0.357 0.053 -0.535 0.077l-0.301 0.043C13.126 58.732 13.126 58.732 12.923 58.567L12.792 58.398h0.667v-0.334l-0.334 -0.111z" fill="#AB1D18"/><path d="m12.792 55.506 1.224 0.222 -0.111 0.334h-0.222v1.446l-0.222 -0.111v-1.335h-0.222l0.016 0.402q0.006 0.261 0.012 0.523l0.011 0.265 0.004 0.255 0.007 0.235C13.237 57.953 13.237 57.953 12.792 58.287z" fill="#832710"/><path d="M15.684 52.169h0.222l0.049 0.417c0.039 0.313 0.085 0.614 0.174 0.918l-0.222 0.111 0.063 0.188c0.057 0.302 0.011 0.518 -0.063 0.813h-0.445l-0.111 -0.556 -0.667 0.222v-0.222l-0.222 -0.111 0.111 -0.222h0.222l0.222 -0.667 0.556 0.111z" fill="#AD6C89"/><path d="M14.572 55.172h1.78q0.009 0.483 0.014 0.966l0.006 0.275c0.005 0.583 -0.038 1.017 -0.374 1.511 -0.306 0.211 -0.617 0.216 -0.98 0.25 -0.178 -0.356 -0.004 -0.637 0.111 -1.001 0.111 0.334 0.111 0.334 0 0.667l0.667 -0.222v-0.334h0.222q0.004 -0.299 0.007 -0.598l0.004 -0.336c0.009 -0.288 0.009 -0.288 -0.122 -0.512l-0.222 0.334h-0.222c0.064 -0.319 0.096 -0.429 0.334 -0.667h-1.335z" fill="#C18E06"/><path d="M15.239 55.395h0.667c-0.111 0.334 -0.111 0.334 -0.334 0.445l-0.111 0.334 0.556 -0.445c0.087 0.559 0.126 0.999 0 1.557h-0.222v0.334c-0.334 0.222 -0.334 0.222 -0.667 0.222a77.976 77.976 0 0 1 -0.007 -0.535l-0.004 -0.301C15.128 56.73 15.128 56.73 15.239 56.396l-0.056 -0.209c-0.069 -0.293 -0.017 -0.503 0.056 -0.793" fill="#BD770A"/><path d="M13.237 54.06c0.734 0.067 0.734 0.067 1.001 0.334 0.052 0.456 0.043 0.704 -0.188 1.105C13.793 55.729 13.793 55.729 13.508 55.791 13.237 55.729 13.237 55.729 13.035 55.541c-0.152 -0.295 -0.159 -0.486 -0.132 -0.813l0.445 -0.111v-0.334l-0.222 -0.111z" fill="#3C4C40"/><path d="M7.786 57.953h2.002v0.779l-2.002 0.111z" fill="#455D6B"/><path d="M17.241 57.953h2.002v0.89l-2.002 -0.111z" fill="#395773"/><path d="M13.571 51.39h3.115v3.448h-2.113v-0.667l0.779 -0.222c0.111 0.334 0.111 0.334 0.111 0.779h1.112v-3.226l-1.335 0.111a16.463 16.463 0 0 1 -0.918 -0.049l-0.433 -0.034L13.571 51.502z" fill="#BBBAB9"/><path d="M37.041 59.622h0.667v0.222h-0.445v4.004h0.222v-3.337l0.222 0.111 -0.111 3.337h-0.556z" fill="#AA8A10"/><path d="m17.798 55.506 1.001 0.334v1.335h-1.001z" fill="#C6C6C6"/><path d="M8.565 53.281q0.382 -0.009 0.765 -0.014l0.43 -0.008C10.122 53.281 10.122 53.281 10.345 53.504v0.445l-2.225 0.111 -0.222 -0.556h0.667z" fill="#9D1C17"/><path d="m15.795 48.276 1.112 0.334c0.103 0.525 0.137 0.854 -0.111 1.335h-0.334l-0.111 0.222h-0.445v-0.222h0.334v-0.222h0.222c-0.031 -0.216 -0.031 -0.216 -0.111 -0.445 -0.325 -0.216 -0.514 -0.273 -0.89 -0.334v-0.445h0.334z" fill="#7F6906"/><path d="M17.686 52.169h1.112v1.224c-0.771 0.011 -0.771 0.011 -1.001 0 -0.111 -0.111 -0.111 -0.111 -0.122 -0.365z" fill="#9D9076"/><path d="M34.594 60.4c0.349 0.175 0.381 0.47 0.514 0.827l0.15 0.396C35.373 61.958 35.373 61.958 35.373 62.18h-1.335v-0.445h0.222l0.042 -0.355c0.06 -0.364 0.141 -0.647 0.292 -0.98" fill="#242829"/><path d="m17.686 55.395 0.222 0.111 -0.111 1.669 0.487 -0.021c0.274 -0.012 0.274 -0.012 0.514 0.021 0.222 0.334 0.222 0.334 0.222 0.779h-1.557v-0.445h0.222z" fill="#9E8A14"/><path d="m11.02 49.044 0.278 0.004 0.279 0.003L11.791 49.055l0.111 0.334 -0.111 0.222h-0.222v0.334h0.445v0.334h-0.445l-0.111 0.111a19.689 19.689 0 0 1 -0.779 -0.111v-0.222l0.556 0.111v-0.334l-0.667 -0.111c0.119 -0.663 0.119 -0.663 0.452 -0.678" fill="#A51717"/><path d="M42.38 68.854h1.335v2.002h-0.779l0.222 -0.222c0.052 -0.347 0.052 -0.347 0.07 -0.737l0.025 -0.401L43.27 69.188h-0.89z" fill="#F1BB02"/><path d="M49.722 67.408c0.213 0.319 0.33 0.593 0.459 0.953l0.119 0.327C50.389 68.966 50.389 68.966 50.389 69.188h-1.335q0.135 -0.414 0.271 -0.827l0.078 -0.238c0.195 -0.59 0.195 -0.59 0.319 -0.714" fill="#1B222A"/><path d="M11.791 54.95h0.334v3.56l-0.334 0.111z" fill="#B49A02"/><path d="m14.905 49.944 0.222 0.222c0.271 0.051 0.271 0.051 0.57 0.07l0.307 0.025L16.24 50.278l-0.271 0.257c-0.304 0.276 -0.304 0.276 -0.396 0.633 -0.437 0.241 -0.822 0.246 -1.314 0.236l-0.392 -0.006L13.571 51.39v-0.111l0.211 -0.016 0.276 -0.025c0.09 -0.008 0.181 -0.016 0.274 -0.023 0.263 -0.027 0.263 -0.027 0.463 -0.269 0.292 -0.014 0.292 -0.014 0.556 0l-0.111 -0.111h-0.222v-0.334l-0.222 -0.111v0.334h-0.445v-0.222l-0.334 -0.111z" fill="#7D620C"/><path d="M31.591 66.852h0.667v4.004h-0.222v-3.56h-0.222l-0.111 0.334c-0.111 -0.111 -0.111 -0.111 -0.118 -0.452z" fill="#FCC200"/><path d="m12.458 55.395 0.334 0.222c0.048 0.26 0.048 0.26 0.057 0.581l0.012 0.348 0.008 0.364 0.011 0.367q0.014 0.449 0.023 0.899l0.556 -0.111v0.334l-1.001 0.111z" fill="#AE9A1A"/><path d="M13.237 48.61v0.445h0.222l-0.111 0.779c-0.848 -0.195 -0.848 -0.195 -1.224 -0.445 0.021 -0.264 0.021 -0.264 0.111 -0.556 0.365 -0.207 0.575 -0.222 1.001 -0.222" fill="#9F2B12"/><path d="M54.171 38.71v0.334l-0.236 0.139A2.948 2.948 0 0 0 52.836 40.378c-0.004 0.26 -0.005 0.519 0 0.779l-0.334 0.111c-0.111 -0.111 -0.111 -0.111 -0.16 -0.501 0.009 -0.699 0.429 -1.199 0.893 -1.689 0.34 -0.307 0.464 -0.369 0.935 -0.369" fill="#E1E2E5"/><path d="M8.676 50.389h0.222v0.222l0.556 0.111c0 0.445 0 0.445 -0.222 0.779 -0.216 0.033 -0.216 0.033 -0.459 0.021L8.343 51.502v-0.334h-0.222l0.111 -0.556h0.445z" fill="#6F3E06"/><path d="M13.348 49.499h0.334l0.111 0.334 -0.222 0.222 0.111 0.222 -0.32 -0.007c-0.337 -0.018 -0.337 -0.018 -0.57 0.118l-0.111 0.334 -0.445 -0.111 0.111 -0.222h-0.334v-0.667c0.522 -0.124 0.838 -0.09 1.335 0.111z" fill="#8A2316"/><path d="M14.683 54.95h1.891c0.009 0.362 0.016 0.723 0.021 1.085l0.008 0.31 0.003 0.3 0.005 0.275c-0.046 0.312 -0.167 0.465 -0.372 0.7 -0.003 -0.345 -0.005 -0.691 -0.007 -1.036l-0.003 -0.297 -0.001 -0.286 -0.002 -0.263C16.24 55.506 16.24 55.506 16.352 55.172l-0.403 0.056c-0.387 0.049 -0.763 0.065 -1.154 0.056z" fill="#AE1F17"/><path d="m17.798 53.949 1.001 0.111v1.224c-0.379 -0.118 -0.669 -0.223 -1.001 -0.445 -0.045 -0.302 -0.015 -0.583 0 -0.89" fill="#C2C2C2"/><path d="m19.355 15.462 0.222 0.111 -3.893 3.893 -0.222 -0.111 0.167 -0.163c0.387 -0.382 0.764 -0.766 1.119 -1.178 0.569 -0.659 1.184 -1.245 1.843 -1.812 0.267 -0.235 0.516 -0.484 0.764 -0.739" fill="#AB0C20"/><path d="M9.344 53.949v0.89c-0.626 0.334 -0.626 0.334 -1.001 0.334v-1.112c0.356 -0.118 0.629 -0.119 1.001 -0.111" fill="#C5C4C3"/><path d="m17.686 51.168 0.111 0.334h0.89l0.111 -0.222 0.222 0.111 -0.111 0.779h-1.224v-0.334h-0.222v-0.445h0.222z" fill="#9C8600"/><path d="m45.495 59.844 -0.111 0.445 -1.557 -0.111 0.222 -0.222c-0.286 0.039 -0.506 0.079 -0.751 0.236 -0.207 0.311 -0.216 0.621 -0.25 0.987h-0.111c-0.068 -0.803 -0.068 -0.803 0.257 -1.217 0.709 -0.544 1.511 -0.382 2.301 -0.118" fill="#BB950C"/><path d="M55.729 39.933c0.087 0.282 0.11 0.494 0.104 0.793 -0.03 0.334 -0.03 0.334 0.229 0.542 0.299 0.03 0.589 0.01 0.89 0v0.334c-0.291 0.097 -0.479 0.132 -0.779 0.139l-0.229 0.009C55.729 41.713 55.729 41.713 55.536 41.583c-0.195 -0.281 -0.186 -0.483 -0.183 -0.822l-0.003 -0.327L55.395 40.156z" fill="#E9EAED"/><path d="M9.01 55.729v1.446h-0.667v-1.335c0.222 -0.111 0.222 -0.111 0.667 -0.111" fill="#C9C8C7"/><path d="M10.345 54.95h0.334v3.003c-0.344 -0.459 -0.375 -0.518 -0.366 -1.048l0.003 -0.345c0.003 -0.118 0.006 -0.237 0.008 -0.359l0.004 -0.364q0.006 -0.444 0.016 -0.888" fill="#AB9700"/><path d="M15.906 49.029C16.129 49.055 16.129 49.055 16.463 49.277v0.445h-0.222l-0.111 0.222c-0.257 0.021 -0.257 0.021 -0.556 0 -0.181 -0.167 -0.181 -0.167 -0.334 -0.334h-0.334c0.272 -0.563 0.354 -0.569 1 -0.582" fill="#A41F16"/><path d="m58.176 39.6 0.222 0.111c0.05 0.339 0.056 0.578 -0.129 0.873 -0.317 0.381 -0.632 0.707 -1.095 0.906l-0.334 -0.111c-0.26 -0.004 -0.519 -0.005 -0.779 0v-0.111l0.403 -0.083c0.648 -0.162 1.175 -0.511 1.599 -1.029 0.089 -0.294 0.089 -0.294 0.111 -0.556" fill="#CCCFD5"/><path d="m13.793 48.721 1.001 0.111c0.094 0.376 0.123 0.631 0 1.001 -0.379 -0.118 -0.669 -0.223 -1.001 -0.445 -0.021 -0.348 -0.021 -0.348 0 -0.667" fill="#A62215"/><path d="m54.505 40.378 0.111 0.445c-0.422 0.314 -0.688 0.508 -1.224 0.445 -0.024 -0.301 -0.037 -0.494 0.118 -0.758 0.326 -0.2 0.621 -0.153 0.994 -0.132" fill="#0F1C38"/><path d="m14.127 56.618 0.667 0.111 -0.334 0.556 0.556 -0.445v1.112l-0.556 0.111 -0.111 -0.334 -0.222 -0.111h0.222v-0.222h-0.222z" fill="#BE7B09"/><path d="M13.55 53.81 13.904 53.838v0.222l-0.375 0.09c-0.427 0.094 -0.427 0.094 -0.626 0.466a14.238 14.238 0 0 0 -0.111 0.779l-0.222 -0.111 -0.111 -0.667 -1.446 -0.111v-0.111l0.321 -0.009 0.423 -0.019 0.418 -0.016c0.577 -0.099 0.792 -0.502 1.375 -0.541" fill="#89161A"/><path d="M13.522 54.053 13.793 54.06c0.111 0.222 0.111 0.222 0.007 0.57L13.682 54.95h-0.222v0.667l-0.445 -0.111 -0.111 -0.779 0.445 -0.111v-0.334l-0.222 -0.111c0.111 -0.111 0.111 -0.111 0.396 -0.118" fill="#0E4B8B"/><path d="m14.461 54.394 0.111 0.445h2.113v0.111h-2.002l-0.222 0.667c-0.181 0.209 -0.181 0.209 -0.334 0.334l-0.222 -0.111c0 -0.334 0 -0.334 0.222 -0.667l0.056 -0.285C14.238 54.616 14.238 54.616 14.461 54.394" fill="#712A2A"/><path d="M11.346 50.056h0.222v0.222h0.222v0.222l-0.222 0.111 0.111 0.222h0.89v0.111l-0.556 0.111 0.111 0.334H10.345v-0.111l1.112 -0.111v-0.445l-0.215 -0.097C11.012 50.501 11.012 50.501 10.901 50.278l0.556 0.111z" fill="#977402"/><path d="M13.904 47.831c0.95 -0.067 1.768 0.179 2.67 0.445v0.222l-0.779 -0.222v0.222h-0.334v0.445h0.556v0.111h-0.667c-0.111 -0.334 -0.111 -0.334 0 -0.667 -0.321 -0.175 -0.615 -0.274 -0.973 -0.348l-0.269 -0.057L13.904 47.942z" fill="#997A24"/><path d="m54.727 40.378 0.222 0.111c-0.009 0.303 -0.053 0.495 -0.265 0.717 -0.356 0.279 -0.579 0.39 -1.035 0.444 -0.33 -0.044 -0.536 -0.094 -0.813 -0.271l0.445 -0.222v0.222c0.765 -0.237 0.765 -0.237 1.349 -0.751z" fill="#E8E9EC"/><path d="m8.009 53.615 0.111 0.445h0.222l0.111 1.224h-0.222v-0.556l-0.209 -0.028C7.786 54.616 7.786 54.616 7.647 54.415 7.564 54.171 7.564 54.171 7.564 53.726c0.222 -0.111 0.222 -0.111 0.445 -0.111" fill="#8D3820"/><path d="M8.343 52.28h0.667v1.001l-0.667 0.111z" fill="#C9C8C7"/><path d="M11.68 51.724h0.556v0.334h0.445l-0.111 0.445h-0.89v-0.334h-0.334l-0.111 0.222v-0.334h0.445z" fill="#562907"/><path d="M17.798 52.28h0.667v1.001h-0.667z" fill="#C6C6C6"/><path d="M13.237 57.731c0.264 -0.021 0.264 -0.021 0.556 0l0.222 0.334h-0.334c0.214 0.247 0.214 0.247 0.556 0.334v0.222c-0.178 0.028 -0.357 0.053 -0.535 0.077l-0.301 0.043C13.126 58.732 13.126 58.732 12.923 58.567L12.792 58.398h0.667v-0.334l-0.334 -0.111z" fill="#385B50"/><path d="M13.904 48.165c0.737 -0.028 0.737 -0.028 1.112 0.222v0.445a84.983 84.983 0 0 1 -0.487 -0.049l-0.274 -0.027C14.016 48.721 14.016 48.721 13.793 48.61z" fill="#F5BD00"/><path d="M15.017 55.395v0.89c-0.301 0.151 -0.557 0.118 -0.89 0.111 0.061 -0.375 0.117 -0.565 0.334 -0.89 0.334 -0.111 0.334 -0.111 0.556 -0.111" fill="#B7570E"/><path d="M12.441 48.154 13.126 48.165l0.111 0.445c-0.431 0.133 -0.769 0.222 -1.224 0.222 0.119 -0.662 0.119 -0.662 0.428 -0.678" fill="#F4BD00"/><path d="M11.457 53.059h0.334l0.111 0.89h0.222v0.445h-0.445v-0.222l-0.334 -0.111z" fill="#30405F"/><path d="M31.813 67.519h0.111v3.448h-0.111l-0.111 -2.336 -0.334 0.222q0.08 -0.271 0.16 -0.542l0.09 -0.305C31.702 67.742 31.702 67.742 31.813 67.519" fill="#2D2F27"/><path d="M37.152 67.408h0.111v3.56h-0.111l-0.111 -2.447 -0.334 0.222q0.08 -0.271 0.16 -0.542l0.09 -0.305C37.041 67.631 37.041 67.631 37.152 67.408" fill="#4A4421"/><path d="M9.344 55.395v1.78h-0.334v-1.446l-0.222 -0.111c0.431 -0.222 0.431 -0.222 0.556 -0.222" fill="#928D87"/><path d="M18.242 53.393c0.953 0.079 0.953 0.079 1.335 0.445 -0.195 0.64 -0.195 0.64 -0.445 0.89h-0.334v-0.667l0.445 0.111v-0.445l-0.25 -0.042c-0.284 -0.065 -0.498 -0.152 -0.751 -0.292" fill="#932914"/><path d="m14.794 49.388 0.111 0.222h0.222l0.111 -0.222v0.222c0.294 0.157 0.564 0.264 0.89 0.334h-0.222v0.222l0.445 -0.111v0.222c-0.64 0.125 -0.64 0.125 -0.89 0v-0.222l-0.334 -0.111v-0.222l-0.334 0.111v-0.222l-0.222 -0.111z" fill="#7D400F"/><path d="M17.909 53.393c0.48 0.057 0.894 0.133 1.335 0.334v0.445c-0.38 -0.047 -0.748 -0.102 -1.112 -0.222 -0.181 -0.292 -0.181 -0.292 -0.222 -0.556" fill="#B65F0D"/><path d="M13.793 50.167h0.334l-0.111 0.222zm0 0.222 0.556 0.111v0.222h0.445v-0.334l0.334 0.111 -0.111 0.334h0.222v-0.222l0.222 0.111 -0.111 0.334 -1.112 -0.111v-0.222h-0.445z" fill="#9D8B05"/><path d="M13.126 50.945q0.41 -0.009 0.82 -0.014l0.235 -0.006c0.204 -0.002 0.409 0.008 0.613 0.019l0.222 0.222c-0.402 0.126 -0.777 0.122 -1.196 0.118l-0.395 -0.003L13.126 51.279z" fill="#9C1915"/><path d="M58.176 39.043c0.291 0.271 0.331 0.406 0.355 0.806L58.509 40.156l-0.222 -0.445 -0.222 0.445 -0.104 -0.382c-0.077 -0.373 -0.077 -0.373 -0.229 -0.508a7.786 7.786 0 0 0 -0.452 -0.063L56.841 39.155v-0.111c0.897 -0.158 0.897 -0.158 1.335 0" fill="#CCCED4"/><path d="M51.39 38.821c-0.035 0.209 -0.035 0.209 -0.111 0.445 -0.334 0.222 -0.334 0.222 -0.667 0.222v-0.222l-1.001 -0.111c0.36 -0.18 0.517 -0.253 0.89 -0.292l0.222 -0.025c0.222 -0.016 0.445 -0.016 0.667 -0.016" fill="#EBECEF"/><path d="M14.572 51.947c0.684 -0.011 0.684 -0.011 0.89 0 0.111 0.111 0.111 0.111 0.125 0.389C15.573 52.614 15.573 52.614 15.462 52.725c-0.185 0.004 -0.371 0.005 -0.556 0l-0.104 -0.264c-0.11 -0.283 -0.11 -0.283 -0.229 -0.514" fill="#A25D77"/><path d="m12.583 50.939 0.307 0.003L13.126 50.945v0.334l0.445 0.111h-1.446v-0.222l-0.334 -0.111c0.281 -0.14 0.48 -0.122 0.793 -0.118" fill="#532507"/><path d="m11.902 48.387 0.111 0.445 0.222 0.111v0.445c0.158 0.195 0.158 0.195 0.334 0.334l-0.334 0.111 -0.222 -0.111v0.222h-0.445v-0.334h0.222z" fill="#896505"/><path d="m89.655 70.412 1.557 0.222v0.111h-0.89v0.222h0.89v0.111q-0.264 0.004 -0.528 0.007l-0.297 0.004c-0.263 -0.01 -0.481 -0.048 -0.732 -0.122z" fill="#D6A907"/><path d="M15.462 48.498c0.37 -0.025 0.603 -0.036 0.932 0.146C16.574 48.832 16.574 48.832 16.574 49.166l-1.112 -0.222z" fill="#EFB900"/><path d="M49.166 38.821h1.78v0.111l-0.89 0.111 0.667 0.111 -0.222 0.222c-0.289 -0.003 -0.289 -0.003 -0.626 -0.042l-0.338 -0.037L49.277 39.266z" fill="#B8BBC4"/><path d="M27.364 59.622c0.537 -0.021 0.945 0.027 1.446 0.222v0.445l-1.557 -0.111v-0.111h0.89l-0.111 -0.222c-0.337 -0.073 -0.337 -0.073 -0.667 -0.111z" fill="#C69D0A"/><path d="M18.354 58.287h0.89v0.556l-2.002 -0.111c0.344 -0.229 0.413 -0.249 0.8 -0.236L18.465 58.509z" fill="#305579"/><path d="M36.263 68.409c0.212 0.353 0.24 0.568 0.181 0.973l-0.037 0.269L36.374 69.855h-0.556l0.16 -0.535 0.09 -0.301c0.062 -0.204 0.128 -0.407 0.195 -0.61" fill="#D7A907"/><path d="M11.123 52.503c0.395 0.395 0.334 1.023 0.334 1.557l0.222 0.111v0.222h-0.667v-0.556h0.222z" fill="#57360A"/><path d="M13.237 47.831c-0.365 0.21 -0.699 0.271 -1.112 0.334 -0.259 0.107 -0.259 0.107 -0.445 0.445v-0.334h-0.779c0.253 -0.253 0.366 -0.273 0.709 -0.341 0.375 -0.076 0.375 -0.076 0.746 -0.17 0.309 -0.067 0.574 0.003 0.88 0.065" fill="#9C842D"/><path d="M13.237 56.062h0.222l0.02 0.276 0.028 0.363 0.027 0.36c0.029 0.273 0.071 0.518 0.146 0.78l-0.445 -0.111z" fill="#B0A026"/><path d="M16.796 53.393h0.556l-0.222 0.445c0.259 -0.107 0.259 -0.107 0.445 -0.445v0.445h0.222l0.111 -0.445 0.222 0.556h-1.335z" fill="#9B2A16"/><path d="M11.568 48.498v0.445l-1.001 0.222c0.042 -0.271 0.042 -0.271 0.111 -0.556 0.301 -0.151 0.557 -0.118 0.89 -0.111" fill="#F3BC00"/><path d="M13.682 58.065c0.331 0.078 0.651 0.176 0.973 0.285l0.269 0.091L15.128 58.509c-0.352 0.234 -0.501 0.26 -0.911 0.292l-0.304 0.025L13.682 58.843v-0.222h0.556v-0.222h-0.556z" fill="#AEACA3"/><path d="M19.244 58.176c-0.222 0.334 -0.222 0.334 -0.436 0.391l-0.253 0.02 -0.269 0.022c-0.35 0.017 -0.695 0.02 -1.045 0.013 0.263 -0.263 0.42 -0.277 0.779 -0.334v-0.111c0.443 -0.117 0.777 -0.094 1.224 0" fill="#7B8694"/><path d="M13.237 50.501h0.556v0.222h0.445v0.222h-1.557l0.111 -0.222h0.445z" fill="#7C5904"/><path d="M18.465 55.84h0.334v1.335h-0.334z" fill="#A29E92"/><path d="M8.343 52.169h1.001v1.112h-0.334v-1.001h-0.667z" fill="#908D82"/><path d="m13.459 49.833 0.334 0.222v0.222l0.222 0.111 -0.779 0.111v0.222h-0.334v-0.222l-0.222 -0.111c0.359 -0.239 0.477 -0.245 0.89 -0.222z" fill="#958006"/><path d="M9.789 58.176c-0.222 0.334 -0.222 0.334 -0.447 0.398l-0.262 0.026 -0.26 0.03c-0.288 -0.01 -0.454 -0.086 -0.7 -0.232 0.591 -0.232 1.033 -0.402 1.669 -0.222" fill="#788595"/><path d="M9.121 50.834c0.118 0.209 0.118 0.209 0.222 0.445l-0.111 0.222h-0.89l0.111 -0.445h0.667z" fill="#4B3B02"/><path d="m12.792 49.833 0.222 0.445 -0.222 0.111 -0.111 0.334 -0.445 -0.111 0.111 -0.222h-0.334v-0.445h0.222v0.222c0.22 -0.039 0.22 -0.039 0.445 -0.111z" fill="#6E5C0F"/><path d="m58.176 39.6 0.222 0.111c0.051 0.35 0.054 0.583 -0.141 0.885 -0.168 0.2 -0.33 0.389 -0.527 0.561h-0.222c0.12 -0.25 0.246 -0.482 0.396 -0.716 0.161 -0.287 0.225 -0.517 0.271 -0.841" fill="#EFF0F2"/><path d="M34.038 62.18h1.335l0.111 0.334h-1.446z" fill="#F4BE02"/><path d="M8.565 53.281h1.557l-0.334 0.111v0.445l-0.202 -0.056c-0.256 -0.068 -0.256 -0.068 -0.577 -0.056l-0.111 -0.222 0.334 -0.111h-0.667z" fill="#AB601B"/><path d="m16.574 48.498 0.334 0.111c0.103 0.525 0.137 0.854 -0.111 1.335h-0.334l-0.111 0.222h-0.445v-0.222h0.334v-0.222l0.445 -0.111 0.111 -0.89h-0.222z" fill="#9A811B"/><path d="m48.165 70.078 0.445 0.111 -0.111 0.779h-0.556c0.097 -0.64 0.097 -0.64 0.222 -0.89" fill="#DBAC06"/><path d="M18.465 54.06h0.334v1.224l-0.445 -0.222z" fill="#9B938C"/><path d="M51.279 40.267h0.334c-0.035 0.384 -0.075 0.618 -0.306 0.932 -0.296 0.214 -0.449 0.22 -0.806 0.181l0.264 -0.243c0.275 -0.294 0.396 -0.491 0.514 -0.869" fill="#EBECEE"/><path d="m15.128 56.73 0.222 0.111 0.111 0.334 0.334 0.111v0.334c-0.334 0.222 -0.334 0.222 -0.667 0.222z" fill="#B12F15"/><path d="M9.01 58.287h0.779v0.445q-0.323 0.009 -0.646 0.014l-0.364 0.008C8.454 58.732 8.454 58.732 8.12 58.509h1.001z" fill="#2A5481"/><path d="M15.017 55.506h0.222l-0.007 0.355c0.006 0.349 0.036 0.643 0.118 0.98 -0.215 -0.083 -0.215 -0.083 -0.445 -0.222 -0.09 -0.222 -0.09 -0.222 -0.111 -0.445l0.111 -0.222q0.059 -0.222 0.111 -0.445" fill="#938920"/><path d="m15.017 48.165 0.445 0.222c-0.181 0.751 -0.181 0.751 -0.556 1.001l-0.111 -0.556h0.222z" fill="#745E12"/><path d="M50.389 39.711a26.808 26.808 0 0 1 0.487 0.09l0.274 0.051C51.39 39.933 51.39 39.933 51.613 40.267c-0.503 0.162 -0.836 0.03 -1.335 -0.111z" fill="#D0D3D8"/><path d="m11.235 49.833 0.779 0.111v0.334h-0.445l-0.111 0.111a19.689 19.689 0 0 1 -0.779 -0.111v-0.222l0.556 0.111z" fill="#852512"/><path d="m13.682 49.499 0.667 0.222v0.556l-0.667 -0.222z" fill="#924D13"/><path d="m57.62 38.71 0.222 0.222a40.823 40.823 0 0 1 -0.48 0.118l-0.27 0.066C56.841 39.155 56.841 39.155 56.507 39.043c0.3 -0.424 0.625 -0.378 1.112 -0.334" fill="#E1E3E6"/><path d="M13.522 54.053 13.793 54.06c0.111 0.222 0.111 0.222 0.007 0.57L13.682 54.95c-0.167 -0.146 -0.167 -0.146 -0.334 -0.334v-0.334l-0.222 -0.111c0.111 -0.111 0.111 -0.111 0.396 -0.118" fill="#0752A5"/><path d="M7.898 53.504h0.779v0.556h-0.556z" fill="#AF5511"/><path d="M16.018 51.835h0.334c-0.103 0.531 -0.201 0.959 -0.445 1.446v-1.112l-0.222 -0.111h0.334z" fill="#916B7C"/><path d="M14.016 58.065h0.779l-0.111 0.334h1.001l-0.222 0.222c-0.253 -0.015 -0.253 -0.015 -0.549 -0.076l-0.295 -0.057c-0.286 -0.095 -0.411 -0.194 -0.602 -0.423" fill="#842722"/><path d="m12.125 52.614 0.556 0.222 -0.222 0.779h-0.334z" fill="#303A46"/><path d="m14.905 50.167 0.111 0.222h-0.222v0.334h-0.445v-0.222l-0.334 -0.111c0.359 -0.239 0.477 -0.245 0.89 -0.222" fill="#6C630D"/><path d="m72.191 44.271 0.222 0.111 -1.112 1.112 -0.222 -0.111a92.547 92.547 0 0 1 0.369 -0.431l0.207 -0.242C71.858 44.494 71.858 44.494 72.191 44.271" fill="#D4D6DB"/><path d="m18.91 50.612 0.111 0.445 -0.111 -0.222h-1.335l-0.111 0.222v-0.334c0.529 -0.22 0.886 -0.223 1.446 -0.111" fill="#836300"/><path d="m52.725 40.156 0.111 1.001 -0.334 0.111c-0.111 -0.111 -0.111 -0.111 -0.122 -0.317L52.392 40.267c0.222 -0.111 0.222 -0.111 0.334 -0.111" fill="#E6E7EA"/><path d="m52.836 40.156 0.111 0.222 0.334 0.111 -0.222 0.667 -0.334 -0.111c-0.014 -0.64 -0.014 -0.64 0.111 -0.89" fill="#2D374F"/><path d="m54.283 40.156 -0.188 0.07c-0.358 0.213 -0.553 0.496 -0.813 0.82h-0.111c-0.024 -0.301 -0.037 -0.494 0.118 -0.758 0.326 -0.2 0.621 -0.153 0.994 -0.132" fill="#E6E7EA"/><path d="M14.794 58.065h1.001l-0.111 0.334h-1.001z" fill="#AE1C18"/><path d="M17.686 53.949h0.111v0.89l-0.445 -0.111 -0.111 0.334v-0.556l0.445 -0.222z" fill="#914520"/><path d="M9.01 53.949h0.334v0.89l-0.334 0.111z" fill="#908D8B"/><path d="M15.239 51.613c0.209 0.035 0.209 0.035 0.445 0.111l0.222 0.334h-0.222v0.667l-0.222 -0.111v-0.556l-0.334 -0.111z" fill="#6E5550"/><path d="M17.798 51.168h1.001l-0.111 0.334h-0.89z" fill="#4F4002"/><path d="M11.346 50.056h0.222v0.222h0.222v0.222l-0.222 0.111 0.111 0.222 -0.222 0.222v-0.334l-0.215 -0.097C11.012 50.501 11.012 50.501 10.901 50.278l0.556 0.111z" fill="#7D6009"/><path d="M13.348 49.499h0.334l0.111 0.334 -0.222 0.222 0.111 0.222 -0.667 -0.111 0.111 -0.445 0.222 0.111z" fill="#78300B"/><path d="M37.152 67.408h0.111c0.035 0.355 0.035 0.355 0 0.779 -0.278 0.327 -0.278 0.327 -0.556 0.556q0.08 -0.271 0.16 -0.542l0.09 -0.305C37.041 67.631 37.041 67.631 37.152 67.408" fill="#353426"/><path d="M14.905 56.841c0.118 0.356 0.119 0.629 0.111 1.001l-0.556 -0.222c0 -0.334 0 -0.334 0.222 -0.577z" fill="#AE1D17"/><path d="m12.792 55.506 1.224 0.222 -0.111 0.222c-0.737 0.028 -0.737 0.028 -1.112 -0.222z" fill="#951417"/><path d="M13.014 54.283h0.334l0.111 0.445h-0.222l-0.111 0.222v-0.222h-0.222l-0.111 0.445c0.097 -0.765 0.097 -0.765 0.222 -0.89" fill="#425040"/><path d="M15.684 52.169h0.222v1.112l-0.334 -0.111z" fill="#C1C1C1"/><path d="M13.237 57.731c0.264 -0.021 0.264 -0.021 0.556 0l0.222 0.334h-0.334v0.334h-0.222v-0.334l-0.334 -0.111z" fill="#704E3F"/><path d="m8.231 55.395 0.222 0.111 -0.111 0.445 -0.556 0.111 0.111 -0.556z" fill="#A31A19"/><path d="M14.127 54.616h0.111c-0.028 0.375 -0.028 0.375 -0.111 0.779 -0.229 0.16 -0.229 0.16 -0.445 0.222l0.111 -0.556h0.222z" fill="#0450A4"/><path d="m10.345 49.722 0.89 0.111v0.334l-1.001 -0.222z" fill="#977802"/><path d="M13.459 46.83h0.222c0.077 0.195 0.077 0.195 0.111 0.445 -0.16 0.25 -0.16 0.25 -0.334 0.445l-0.222 -0.667z" fill="#B29605"/><path d="M15.239 55.395h0.667c-0.137 0.41 -0.327 0.525 -0.667 0.779z" fill="#B23613"/><path d="m14.016 53.949 0.445 0.222v1.001h-0.111c-0.238 -0.826 -0.238 -0.826 -0.334 -1.224" fill="#92191D"/><path d="m8.009 53.615 0.111 0.556h-0.556v-0.445c0.222 -0.111 0.222 -0.111 0.445 -0.111" fill="#A32115"/><path d="m56.396 38.932 0.222 0.111v0.334c-0.334 0.222 -0.334 0.222 -0.577 0.181L55.84 39.488z" fill="#D6D8DD"/><path d="M54.171 38.71v0.334l-1.001 0.222c0.501 -0.556 0.501 -0.556 1.001 -0.556" fill="#CACDD3"/><path d="M49.388 66.852c0.111 0.445 0.111 0.445 0 0.667h0.222l-0.111 0.445 -0.111 -0.222 -0.111 0.222h-0.222z" fill="#C39B0B"/><path d="M34.038 60.512c0.259 0.404 0.241 0.753 0.222 1.224l-0.222 -0.334h-0.222z" fill="#CA9F09"/><path d="M44.716 59.844h0.779l-0.111 0.445h-0.334v-0.222h-0.334z" fill="#DFAF06"/><path d="M18.687 53.726h0.556v0.445l-0.89 -0.111 0.334 -0.111z" fill="#AD5315"/><path d="m13.126 50.945 0.189 0.052c0.262 0.061 0.516 0.095 0.784 0.122l0.269 0.028L14.572 51.168v0.111h-1.446z" fill="#851912"/><path d="M13.237 47.497h0.556v0.556h-0.556z" fill="#58684B"/><path d="m72.525 44.828 0.222 0.111 -0.779 0.779 -0.222 -0.111c0.247 -0.323 0.437 -0.551 0.779 -0.779" fill="#28324B"/><path d="m14.016 56.618 0.222 0.222c-0.042 0.292 -0.042 0.292 -0.111 0.556h0.222v0.222h-0.334c-0.125 -0.751 -0.125 -0.751 0 -1.001" fill="#C39605"/><path d="M15.017 55.395v0.89c-0.222 -0.111 -0.222 -0.111 -0.334 -0.445l-0.222 -0.111v-0.222c0.334 -0.111 0.334 -0.111 0.556 -0.111" fill="#B02F14"/><path d="m9.344 54.283 0.445 0.222v0.667l-0.222 -0.334h-0.222z" fill="#8D290F"/><path d="m14.905 53.615 0.334 0.222v0.222l-0.556 0.222v-0.222l-0.222 -0.111c0.111 -0.222 0.111 -0.222 0.445 -0.334" fill="#855268"/><path d="m14.016 52.836 0.779 0.222 -0.334 0.111v0.222l-0.445 -0.111z" fill="#886474"/><path d="m14.127 56.618 0.667 0.111 -0.445 0.556 -0.222 -0.111z" fill="#B13214"/><path d="m16.129 56.618 -0.111 0.667h-0.222l-0.111 -0.334 -0.222 -0.222c0.334 -0.111 0.334 -0.111 0.667 -0.111" fill="#B13014"/><path d="m13.904 54.171 0.334 0.222 -0.111 0.334h-0.222l-0.111 0.222c-0.111 -0.334 -0.111 -0.334 -0.007 -0.577z" fill="#4F5736"/><path d="M16.796 53.393h0.556l-0.111 0.222v0.334h-0.445z" fill="#A71E16"/><path d="M8.565 53.393h0.667l-0.111 0.222v0.222l-0.445 0.111z" fill="#A93014"/><path d="M11.68 52.503h1.001l-0.111 0.334a12.125 12.125 0 0 1 -0.779 -0.111z" fill="#736400"/><path d="M15.462 52.169v0.556h-0.556c0.251 -0.556 0.251 -0.556 0.556 -0.556" fill="#E16DA2"/><path d="m89.989 66.963 0.334 0.111 -0.215 0.188c-0.251 0.282 -0.3 0.444 -0.341 0.813h-0.111c-0.041 -0.602 -0.041 -0.602 0.167 -0.932z" fill="#BC960C"/><path d="M15.907 55.729c0.222 0.334 0.222 0.334 0.222 0.667l-0.556 -0.111z" fill="#B02C15"/><path d="M9.344 53.949h0.667l-0.222 0.111c-0.073 0.225 -0.073 0.225 -0.111 0.445l-0.334 -0.222z" fill="#E7B201"/><path d="m8.899 50.612 0.556 0.111v0.445l-0.222 -0.111v-0.222l-0.334 0.111z" fill="#883D0A"/><path d="M13.348 48.721h0.334v0.779h-0.334z" fill="#988B2D"/><path d="m13.126 48.165 0.445 0.111c-0.068 0.329 -0.139 0.487 -0.334 0.779z" fill="#7F7018"/></svg>